M48
; DRILL file {KiCad (5.1.4)-1} date 5/19/2020 2:46:30 AM
; FORMAT={-:-/ absolute / inch / decimal}
; #@! TF.CreationDate,2020-05-19T02:46:30-04:00
; #@! TF.GenerationSoftware,Kicad,Pcbnew,(5.1.4)-1
; #@! TF.FileFunction,Plated,1,4,PTH
FMAT,2
INCH
T1C0.0150
T2C0.0300
T3C0.0433
T4C0.0472
T5C0.1200
%
G90
G05
T1
X5.002Y-4.698
X5.002Y-5.708
X5.004Y-4.894
X5.004Y-5.904
X5.024Y-3.698
X5.026Y-3.894
X5.164Y-4.698
X5.164Y-5.708
X5.166Y-4.894
X5.166Y-5.904
X5.186Y-3.698
X5.188Y-3.894
X5.772Y-3.874
X5.772Y-4.02
X5.772Y-4.876
X5.772Y-5.022
X5.772Y-5.88
X5.772Y-6.026
X5.814Y-3.499
X5.8157Y-5.512
X5.8197Y-4.506
X5.892Y-3.874
X5.892Y-4.02
X5.892Y-4.876
X5.892Y-5.022
X5.892Y-5.88
X5.892Y-6.026
X6.11Y-6.948
X6.11Y-7.174
X6.11Y-7.408
X6.11Y-7.636
X6.11Y-7.87
X6.11Y-8.1
X6.566Y-4.304
X6.566Y-4.464
X6.568Y-4.622
X6.568Y-4.782
X6.568Y-4.942
X6.568Y-5.274
X6.568Y-5.434
X6.568Y-5.594
X6.568Y-5.754
X6.568Y-5.914
X6.764Y-4.304
X6.766Y-5.444
X6.766Y-5.594
X6.766Y-5.754
X6.766Y-5.914
X6.768Y-4.464
X6.768Y-4.622
X6.768Y-4.782
X6.768Y-4.942
X6.768Y-5.102
X6.768Y-5.274
X6.962Y-5.444
X6.964Y-4.782
X6.964Y-4.942
X6.964Y-5.102
X6.964Y-5.274
X6.966Y-4.622
X6.968Y-4.464
T2
X6.47Y-3.794
X6.47Y-4.8
X6.47Y-5.806
X7.028Y-4.544
T3
X6.01Y-5.412
X6.31Y-5.412
X5.3627Y-5.264
X5.6627Y-5.264
X5.36Y-6.27
X5.66Y-6.27
X5.362Y-4.262
X5.662Y-4.262
X6.008Y-4.398
X6.308Y-4.398
X6.012Y-6.428
X6.312Y-6.428
T4
X6.128Y-3.24
X6.2658Y-3.24
X5.218Y-6.91
X5.218Y-7.0478
X5.218Y-7.1856
X5.218Y-7.3234
X5.218Y-7.4612
X5.218Y-7.599
X5.218Y-7.7368
X5.218Y-7.8746
X5.218Y-8.0124
X5.218Y-8.1502
T5
X5.0Y-2.95
X5.0Y-8.455
X7.0Y-2.95
X7.0Y-8.455
T0
M30
