G04 #@! TF.GenerationSoftware,KiCad,Pcbnew,(5.1.4)-1*
G04 #@! TF.CreationDate,2020-06-15T02:55:38-04:00*
G04 #@! TF.ProjectId,eth_sw_matrix_7,6574685f-7377-45f6-9d61-747269785f37,rev?*
G04 #@! TF.SameCoordinates,Original*
G04 #@! TF.FileFunction,Copper,L3,Inr*
G04 #@! TF.FilePolarity,Positive*
%FSLAX46Y46*%
G04 Gerber Fmt 4.6, Leading zero omitted, Abs format (unit mm)*
G04 Created by KiCad (PCBNEW (5.1.4)-1) date 2020-06-15 02:55:38*
%MOMM*%
%LPD*%
G04 APERTURE LIST*
%ADD10O,2.200000X2.200000*%
%ADD11R,2.200000X2.200000*%
%ADD12C,2.400000*%
%ADD13R,2.400000X2.400000*%
%ADD14C,0.762000*%
%ADD15C,5.080000*%
%ADD16C,1.524000*%
%ADD17C,0.254000*%
G04 APERTURE END LIST*
D10*
X143814800Y-108254800D03*
D11*
X136194800Y-108254800D03*
D10*
X143832580Y-133705600D03*
D11*
X136212580Y-133705600D03*
D12*
X159151200Y-82296000D03*
D13*
X155651200Y-82296000D03*
X132537200Y-175514000D03*
D12*
X132537200Y-179014000D03*
X132537200Y-182514000D03*
X132537200Y-186014000D03*
X132537200Y-189514000D03*
X132537200Y-193014000D03*
X132537200Y-196514000D03*
X132537200Y-200014000D03*
X132537200Y-203514000D03*
X132537200Y-207014000D03*
D10*
X143764000Y-159258000D03*
D11*
X136144000Y-159258000D03*
X152603200Y-111709200D03*
D10*
X160223200Y-111709200D03*
D11*
X152654000Y-137464800D03*
D10*
X160274000Y-137464800D03*
X160324800Y-163271200D03*
D11*
X152704800Y-163271200D03*
D14*
X176885600Y-125526800D03*
X176885600Y-129590800D03*
X176885600Y-121462800D03*
X149656800Y-153060400D03*
X146608800Y-149352000D03*
X149656800Y-149352000D03*
X146608800Y-153060400D03*
X146608800Y-123850400D03*
X149656800Y-127558800D03*
X146608800Y-127558800D03*
X149656800Y-123850400D03*
X149656800Y-98399600D03*
X149656800Y-102108000D03*
X146608800Y-102108000D03*
X171805600Y-109321600D03*
X166776400Y-109321600D03*
X171907200Y-121462800D03*
X171907200Y-125526800D03*
X171907200Y-129590800D03*
X166827200Y-138023600D03*
X166827200Y-142087600D03*
X166827200Y-146151600D03*
X166827200Y-150215600D03*
X171856400Y-150215600D03*
X171856400Y-146151600D03*
X171856400Y-142087600D03*
X171856400Y-138277600D03*
X176834800Y-138277600D03*
X166827200Y-121462800D03*
X166827200Y-125526800D03*
X147718780Y-140004800D03*
X131216400Y-149961600D03*
X127050800Y-144983200D03*
X127101600Y-149961600D03*
X131165600Y-144983200D03*
X127609600Y-93929200D03*
X131724400Y-93929200D03*
X131775200Y-98907600D03*
X127660400Y-98907600D03*
X176936400Y-117398800D03*
X176885600Y-133959600D03*
X171907200Y-113385600D03*
X166776400Y-113385600D03*
X176987200Y-113385600D03*
X166827200Y-133959600D03*
X171907200Y-133959600D03*
X166827200Y-117398800D03*
X171907200Y-117398800D03*
X127101600Y-124307600D03*
X131216400Y-124307600D03*
X127050800Y-119329200D03*
X131165600Y-119329200D03*
D15*
X127000000Y-74930000D03*
X177800000Y-214757000D03*
X127000000Y-214757000D03*
D14*
X147820380Y-114452400D03*
X147675600Y-88874600D03*
D15*
X177800000Y-74930000D03*
D14*
X146608800Y-98399600D03*
X155194000Y-176479200D03*
X155194000Y-182219600D03*
X155194000Y-188163200D03*
X155194000Y-193954400D03*
X155194000Y-199898000D03*
X155194000Y-205740000D03*
D16*
X164338000Y-147472400D03*
X164338000Y-121920000D03*
X164338000Y-96367600D03*
X178511200Y-115417600D03*
D17*
X157632400Y-111709200D02*
X152603200Y-111709200D01*
X157734000Y-137210800D02*
X157632400Y-137109200D01*
X157734000Y-172720000D02*
X157734000Y-111810800D01*
X151028400Y-172720000D02*
X157734000Y-172720000D01*
X155194000Y-193954400D02*
X151028400Y-193954400D01*
X151028400Y-193954400D02*
X151028400Y-172720000D01*
X156667200Y-137464800D02*
X152654000Y-137464800D01*
X156718000Y-162814000D02*
X156667200Y-162864800D01*
X156718000Y-171704000D02*
X156718000Y-137414000D01*
X150164800Y-171704000D02*
X156718000Y-171704000D01*
X155194000Y-199898000D02*
X150164800Y-199898000D01*
X150164800Y-199898000D02*
X150164800Y-171704000D01*
X155194000Y-205740000D02*
X149098000Y-205740000D01*
X149098000Y-205740000D02*
X149098000Y-170738800D01*
X149098000Y-170738800D02*
X155752800Y-170738800D01*
X155752800Y-170738800D02*
X155752800Y-163271200D01*
X155752800Y-163271200D02*
X152704800Y-163271200D01*
G36*
X183236001Y-220066000D02*
G01*
X121564000Y-220066000D01*
X121564000Y-208291980D01*
X131438826Y-208291980D01*
X131558714Y-208576836D01*
X131882410Y-208737699D01*
X132231269Y-208832322D01*
X132591884Y-208857067D01*
X132950398Y-208810985D01*
X133293033Y-208695846D01*
X133515686Y-208576836D01*
X133635574Y-208291980D01*
X132537200Y-207193605D01*
X131438826Y-208291980D01*
X121564000Y-208291980D01*
X121564000Y-207068684D01*
X130694133Y-207068684D01*
X130740215Y-207427198D01*
X130855354Y-207769833D01*
X130974364Y-207992486D01*
X131259220Y-208112374D01*
X132357595Y-207014000D01*
X132716805Y-207014000D01*
X133815180Y-208112374D01*
X134100036Y-207992486D01*
X134260899Y-207668790D01*
X134355522Y-207319931D01*
X134380267Y-206959316D01*
X134334185Y-206600802D01*
X134219046Y-206258167D01*
X134100036Y-206035514D01*
X133815180Y-205915626D01*
X132716805Y-207014000D01*
X132357595Y-207014000D01*
X131259220Y-205915626D01*
X130974364Y-206035514D01*
X130813501Y-206359210D01*
X130718878Y-206708069D01*
X130694133Y-207068684D01*
X121564000Y-207068684D01*
X121564000Y-174314000D01*
X130443899Y-174314000D01*
X130443899Y-176714000D01*
X130461064Y-176888274D01*
X130511897Y-177055851D01*
X130594447Y-177210291D01*
X130705541Y-177345659D01*
X130840909Y-177456753D01*
X130995349Y-177539303D01*
X131043115Y-177553793D01*
X130914568Y-177682340D01*
X130685952Y-178024487D01*
X130528479Y-178404661D01*
X130448200Y-178808251D01*
X130448200Y-179219749D01*
X130528479Y-179623339D01*
X130685952Y-180003513D01*
X130914568Y-180345660D01*
X131205540Y-180636632D01*
X131396159Y-180764000D01*
X131205540Y-180891368D01*
X130914568Y-181182340D01*
X130685952Y-181524487D01*
X130528479Y-181904661D01*
X130448200Y-182308251D01*
X130448200Y-182719749D01*
X130528479Y-183123339D01*
X130685952Y-183503513D01*
X130914568Y-183845660D01*
X131205540Y-184136632D01*
X131396159Y-184264000D01*
X131205540Y-184391368D01*
X130914568Y-184682340D01*
X130685952Y-185024487D01*
X130528479Y-185404661D01*
X130448200Y-185808251D01*
X130448200Y-186219749D01*
X130528479Y-186623339D01*
X130685952Y-187003513D01*
X130914568Y-187345660D01*
X131205540Y-187636632D01*
X131396159Y-187764000D01*
X131205540Y-187891368D01*
X130914568Y-188182340D01*
X130685952Y-188524487D01*
X130528479Y-188904661D01*
X130448200Y-189308251D01*
X130448200Y-189719749D01*
X130528479Y-190123339D01*
X130685952Y-190503513D01*
X130914568Y-190845660D01*
X131205540Y-191136632D01*
X131396159Y-191264000D01*
X131205540Y-191391368D01*
X130914568Y-191682340D01*
X130685952Y-192024487D01*
X130528479Y-192404661D01*
X130448200Y-192808251D01*
X130448200Y-193219749D01*
X130528479Y-193623339D01*
X130685952Y-194003513D01*
X130914568Y-194345660D01*
X131205540Y-194636632D01*
X131396159Y-194764000D01*
X131205540Y-194891368D01*
X130914568Y-195182340D01*
X130685952Y-195524487D01*
X130528479Y-195904661D01*
X130448200Y-196308251D01*
X130448200Y-196719749D01*
X130528479Y-197123339D01*
X130685952Y-197503513D01*
X130914568Y-197845660D01*
X131205540Y-198136632D01*
X131396159Y-198264000D01*
X131205540Y-198391368D01*
X130914568Y-198682340D01*
X130685952Y-199024487D01*
X130528479Y-199404661D01*
X130448200Y-199808251D01*
X130448200Y-200219749D01*
X130528479Y-200623339D01*
X130685952Y-201003513D01*
X130914568Y-201345660D01*
X131205540Y-201636632D01*
X131396159Y-201764000D01*
X131205540Y-201891368D01*
X130914568Y-202182340D01*
X130685952Y-202524487D01*
X130528479Y-202904661D01*
X130448200Y-203308251D01*
X130448200Y-203719749D01*
X130528479Y-204123339D01*
X130685952Y-204503513D01*
X130914568Y-204845660D01*
X131205540Y-205136632D01*
X131547687Y-205365248D01*
X131644459Y-205405332D01*
X131558714Y-205451164D01*
X131438826Y-205736020D01*
X132537200Y-206834395D01*
X133635574Y-205736020D01*
X133515686Y-205451164D01*
X133426407Y-205406796D01*
X133526713Y-205365248D01*
X133868860Y-205136632D01*
X134159832Y-204845660D01*
X134388448Y-204503513D01*
X134545921Y-204123339D01*
X134626200Y-203719749D01*
X134626200Y-203308251D01*
X134545921Y-202904661D01*
X134388448Y-202524487D01*
X134159832Y-202182340D01*
X133868860Y-201891368D01*
X133678241Y-201764000D01*
X133868860Y-201636632D01*
X134159832Y-201345660D01*
X134388448Y-201003513D01*
X134545921Y-200623339D01*
X134626200Y-200219749D01*
X134626200Y-199808251D01*
X134545921Y-199404661D01*
X134388448Y-199024487D01*
X134159832Y-198682340D01*
X133868860Y-198391368D01*
X133678241Y-198264000D01*
X133868860Y-198136632D01*
X134159832Y-197845660D01*
X134388448Y-197503513D01*
X134545921Y-197123339D01*
X134626200Y-196719749D01*
X134626200Y-196308251D01*
X134545921Y-195904661D01*
X134388448Y-195524487D01*
X134159832Y-195182340D01*
X133868860Y-194891368D01*
X133678241Y-194764000D01*
X133868860Y-194636632D01*
X134159832Y-194345660D01*
X134388448Y-194003513D01*
X134545921Y-193623339D01*
X134626200Y-193219749D01*
X134626200Y-192808251D01*
X134545921Y-192404661D01*
X134388448Y-192024487D01*
X134159832Y-191682340D01*
X133868860Y-191391368D01*
X133678241Y-191264000D01*
X133868860Y-191136632D01*
X134159832Y-190845660D01*
X134388448Y-190503513D01*
X134545921Y-190123339D01*
X134626200Y-189719749D01*
X134626200Y-189308251D01*
X134545921Y-188904661D01*
X134388448Y-188524487D01*
X134159832Y-188182340D01*
X133868860Y-187891368D01*
X133678241Y-187764000D01*
X133868860Y-187636632D01*
X134159832Y-187345660D01*
X134388448Y-187003513D01*
X134545921Y-186623339D01*
X134626200Y-186219749D01*
X134626200Y-185808251D01*
X134545921Y-185404661D01*
X134388448Y-185024487D01*
X134159832Y-184682340D01*
X133868860Y-184391368D01*
X133678241Y-184264000D01*
X133868860Y-184136632D01*
X134159832Y-183845660D01*
X134388448Y-183503513D01*
X134545921Y-183123339D01*
X134626200Y-182719749D01*
X134626200Y-182308251D01*
X134545921Y-181904661D01*
X134388448Y-181524487D01*
X134159832Y-181182340D01*
X133868860Y-180891368D01*
X133678241Y-180764000D01*
X133868860Y-180636632D01*
X134159832Y-180345660D01*
X134388448Y-180003513D01*
X134545921Y-179623339D01*
X134626200Y-179219749D01*
X134626200Y-178808251D01*
X134545921Y-178404661D01*
X134388448Y-178024487D01*
X134159832Y-177682340D01*
X134031285Y-177553793D01*
X134079051Y-177539303D01*
X134233491Y-177456753D01*
X134368859Y-177345659D01*
X134479953Y-177210291D01*
X134562503Y-177055851D01*
X134613336Y-176888274D01*
X134630501Y-176714000D01*
X134630501Y-174314000D01*
X134613336Y-174139726D01*
X134562503Y-173972149D01*
X134479953Y-173817709D01*
X134368859Y-173682341D01*
X134233491Y-173571247D01*
X134079051Y-173488697D01*
X133911474Y-173437864D01*
X133737200Y-173420699D01*
X131337200Y-173420699D01*
X131162926Y-173437864D01*
X130995349Y-173488697D01*
X130840909Y-173571247D01*
X130705541Y-173682341D01*
X130594447Y-173817709D01*
X130511897Y-173972149D01*
X130461064Y-174139726D01*
X130443899Y-174314000D01*
X121564000Y-174314000D01*
X121564000Y-170738800D01*
X148077085Y-170738800D01*
X148082001Y-170788712D01*
X148082000Y-205690098D01*
X148077085Y-205740000D01*
X148096702Y-205939171D01*
X148154798Y-206130687D01*
X148222937Y-206258167D01*
X148249140Y-206307190D01*
X148376104Y-206461896D01*
X148530810Y-206588860D01*
X148707313Y-206683202D01*
X148898829Y-206741298D01*
X149098000Y-206760915D01*
X149147902Y-206756000D01*
X154428612Y-206756000D01*
X154592429Y-206865459D01*
X154823555Y-206961195D01*
X155068916Y-207010000D01*
X155319084Y-207010000D01*
X155564445Y-206961195D01*
X155795571Y-206865459D01*
X156003578Y-206726473D01*
X156180473Y-206549578D01*
X156319459Y-206341571D01*
X156415195Y-206110445D01*
X156464000Y-205865084D01*
X156464000Y-205614916D01*
X156415195Y-205369555D01*
X156319459Y-205138429D01*
X156180473Y-204930422D01*
X156003578Y-204753527D01*
X155795571Y-204614541D01*
X155564445Y-204518805D01*
X155319084Y-204470000D01*
X155068916Y-204470000D01*
X154823555Y-204518805D01*
X154592429Y-204614541D01*
X154428612Y-204724000D01*
X150114000Y-204724000D01*
X150114000Y-200913912D01*
X150164800Y-200918915D01*
X150214702Y-200914000D01*
X154428612Y-200914000D01*
X154592429Y-201023459D01*
X154823555Y-201119195D01*
X155068916Y-201168000D01*
X155319084Y-201168000D01*
X155564445Y-201119195D01*
X155795571Y-201023459D01*
X156003578Y-200884473D01*
X156180473Y-200707578D01*
X156319459Y-200499571D01*
X156415195Y-200268445D01*
X156464000Y-200023084D01*
X156464000Y-199772916D01*
X156415195Y-199527555D01*
X156319459Y-199296429D01*
X156180473Y-199088422D01*
X156003578Y-198911527D01*
X155795571Y-198772541D01*
X155564445Y-198676805D01*
X155319084Y-198628000D01*
X155068916Y-198628000D01*
X154823555Y-198676805D01*
X154592429Y-198772541D01*
X154428612Y-198882000D01*
X151180800Y-198882000D01*
X151180800Y-194970400D01*
X154428612Y-194970400D01*
X154592429Y-195079859D01*
X154823555Y-195175595D01*
X155068916Y-195224400D01*
X155319084Y-195224400D01*
X155564445Y-195175595D01*
X155795571Y-195079859D01*
X156003578Y-194940873D01*
X156180473Y-194763978D01*
X156319459Y-194555971D01*
X156415195Y-194324845D01*
X156464000Y-194079484D01*
X156464000Y-193829316D01*
X156415195Y-193583955D01*
X156319459Y-193352829D01*
X156180473Y-193144822D01*
X156003578Y-192967927D01*
X155795571Y-192828941D01*
X155564445Y-192733205D01*
X155319084Y-192684400D01*
X155068916Y-192684400D01*
X154823555Y-192733205D01*
X154592429Y-192828941D01*
X154428612Y-192938400D01*
X152044400Y-192938400D01*
X152044400Y-188038116D01*
X153924000Y-188038116D01*
X153924000Y-188288284D01*
X153972805Y-188533645D01*
X154068541Y-188764771D01*
X154207527Y-188972778D01*
X154384422Y-189149673D01*
X154592429Y-189288659D01*
X154823555Y-189384395D01*
X155068916Y-189433200D01*
X155319084Y-189433200D01*
X155564445Y-189384395D01*
X155795571Y-189288659D01*
X156003578Y-189149673D01*
X156180473Y-188972778D01*
X156319459Y-188764771D01*
X156415195Y-188533645D01*
X156464000Y-188288284D01*
X156464000Y-188038116D01*
X156415195Y-187792755D01*
X156319459Y-187561629D01*
X156180473Y-187353622D01*
X156003578Y-187176727D01*
X155795571Y-187037741D01*
X155564445Y-186942005D01*
X155319084Y-186893200D01*
X155068916Y-186893200D01*
X154823555Y-186942005D01*
X154592429Y-187037741D01*
X154384422Y-187176727D01*
X154207527Y-187353622D01*
X154068541Y-187561629D01*
X153972805Y-187792755D01*
X153924000Y-188038116D01*
X152044400Y-188038116D01*
X152044400Y-182094516D01*
X153924000Y-182094516D01*
X153924000Y-182344684D01*
X153972805Y-182590045D01*
X154068541Y-182821171D01*
X154207527Y-183029178D01*
X154384422Y-183206073D01*
X154592429Y-183345059D01*
X154823555Y-183440795D01*
X155068916Y-183489600D01*
X155319084Y-183489600D01*
X155564445Y-183440795D01*
X155795571Y-183345059D01*
X156003578Y-183206073D01*
X156180473Y-183029178D01*
X156319459Y-182821171D01*
X156415195Y-182590045D01*
X156464000Y-182344684D01*
X156464000Y-182094516D01*
X156415195Y-181849155D01*
X156319459Y-181618029D01*
X156180473Y-181410022D01*
X156003578Y-181233127D01*
X155795571Y-181094141D01*
X155564445Y-180998405D01*
X155319084Y-180949600D01*
X155068916Y-180949600D01*
X154823555Y-180998405D01*
X154592429Y-181094141D01*
X154384422Y-181233127D01*
X154207527Y-181410022D01*
X154068541Y-181618029D01*
X153972805Y-181849155D01*
X153924000Y-182094516D01*
X152044400Y-182094516D01*
X152044400Y-176354116D01*
X153924000Y-176354116D01*
X153924000Y-176604284D01*
X153972805Y-176849645D01*
X154068541Y-177080771D01*
X154207527Y-177288778D01*
X154384422Y-177465673D01*
X154592429Y-177604659D01*
X154823555Y-177700395D01*
X155068916Y-177749200D01*
X155319084Y-177749200D01*
X155564445Y-177700395D01*
X155795571Y-177604659D01*
X156003578Y-177465673D01*
X156180473Y-177288778D01*
X156319459Y-177080771D01*
X156415195Y-176849645D01*
X156464000Y-176604284D01*
X156464000Y-176354116D01*
X156415195Y-176108755D01*
X156319459Y-175877629D01*
X156180473Y-175669622D01*
X156003578Y-175492727D01*
X155795571Y-175353741D01*
X155564445Y-175258005D01*
X155319084Y-175209200D01*
X155068916Y-175209200D01*
X154823555Y-175258005D01*
X154592429Y-175353741D01*
X154384422Y-175492727D01*
X154207527Y-175669622D01*
X154068541Y-175877629D01*
X153972805Y-176108755D01*
X153924000Y-176354116D01*
X152044400Y-176354116D01*
X152044400Y-173736000D01*
X157684098Y-173736000D01*
X157734000Y-173740915D01*
X157783902Y-173736000D01*
X157933171Y-173721298D01*
X158124687Y-173663202D01*
X158301190Y-173568860D01*
X158455896Y-173441896D01*
X158582860Y-173287190D01*
X158677202Y-173110687D01*
X158735298Y-172919171D01*
X158754915Y-172720000D01*
X158750000Y-172670098D01*
X158750000Y-163981551D01*
X158850269Y-164185529D01*
X159056978Y-164455627D01*
X159312409Y-164680208D01*
X159606746Y-164850642D01*
X159928677Y-164960379D01*
X160197800Y-164842800D01*
X160197800Y-163398200D01*
X160451800Y-163398200D01*
X160451800Y-164842800D01*
X160720923Y-164960379D01*
X161042854Y-164850642D01*
X161337191Y-164680208D01*
X161592622Y-164455627D01*
X161799331Y-164185529D01*
X161949375Y-163880294D01*
X162013975Y-163667322D01*
X161895925Y-163398200D01*
X160451800Y-163398200D01*
X160197800Y-163398200D01*
X160177800Y-163398200D01*
X160177800Y-163144200D01*
X160197800Y-163144200D01*
X160197800Y-161699600D01*
X160451800Y-161699600D01*
X160451800Y-163144200D01*
X161895925Y-163144200D01*
X162013975Y-162875078D01*
X161949375Y-162662106D01*
X161799331Y-162356871D01*
X161592622Y-162086773D01*
X161337191Y-161862192D01*
X161042854Y-161691758D01*
X160720923Y-161582021D01*
X160451800Y-161699600D01*
X160197800Y-161699600D01*
X159928677Y-161582021D01*
X159606746Y-161691758D01*
X159312409Y-161862192D01*
X159056978Y-162086773D01*
X158850269Y-162356871D01*
X158750000Y-162560849D01*
X158750000Y-147309791D01*
X162687000Y-147309791D01*
X162687000Y-147635009D01*
X162750447Y-147953979D01*
X162874903Y-148254442D01*
X163055585Y-148524851D01*
X163285549Y-148754815D01*
X163555958Y-148935497D01*
X163856421Y-149059953D01*
X164175391Y-149123400D01*
X164500609Y-149123400D01*
X164819579Y-149059953D01*
X165120042Y-148935497D01*
X165390451Y-148754815D01*
X165620415Y-148524851D01*
X165801097Y-148254442D01*
X165925553Y-147953979D01*
X165989000Y-147635009D01*
X165989000Y-147309791D01*
X165925553Y-146990821D01*
X165801097Y-146690358D01*
X165620415Y-146419949D01*
X165390451Y-146189985D01*
X165120042Y-146009303D01*
X164819579Y-145884847D01*
X164500609Y-145821400D01*
X164175391Y-145821400D01*
X163856421Y-145884847D01*
X163555958Y-146009303D01*
X163285549Y-146189985D01*
X163055585Y-146419949D01*
X162874903Y-146690358D01*
X162750447Y-146990821D01*
X162687000Y-147309791D01*
X158750000Y-147309791D01*
X158750000Y-138278494D01*
X158799469Y-138379129D01*
X159006178Y-138649227D01*
X159261609Y-138873808D01*
X159555946Y-139044242D01*
X159877877Y-139153979D01*
X160147000Y-139036400D01*
X160147000Y-137591800D01*
X160401000Y-137591800D01*
X160401000Y-139036400D01*
X160670123Y-139153979D01*
X160992054Y-139044242D01*
X161286391Y-138873808D01*
X161541822Y-138649227D01*
X161748531Y-138379129D01*
X161898575Y-138073894D01*
X161963175Y-137860922D01*
X161845125Y-137591800D01*
X160401000Y-137591800D01*
X160147000Y-137591800D01*
X160127000Y-137591800D01*
X160127000Y-137337800D01*
X160147000Y-137337800D01*
X160147000Y-135893200D01*
X160401000Y-135893200D01*
X160401000Y-137337800D01*
X161845125Y-137337800D01*
X161963175Y-137068678D01*
X161898575Y-136855706D01*
X161748531Y-136550471D01*
X161541822Y-136280373D01*
X161286391Y-136055792D01*
X160992054Y-135885358D01*
X160670123Y-135775621D01*
X160401000Y-135893200D01*
X160147000Y-135893200D01*
X159877877Y-135775621D01*
X159555946Y-135885358D01*
X159261609Y-136055792D01*
X159006178Y-136280373D01*
X158799469Y-136550471D01*
X158750000Y-136651106D01*
X158750000Y-121757391D01*
X162687000Y-121757391D01*
X162687000Y-122082609D01*
X162750447Y-122401579D01*
X162874903Y-122702042D01*
X163055585Y-122972451D01*
X163285549Y-123202415D01*
X163555958Y-123383097D01*
X163856421Y-123507553D01*
X164175391Y-123571000D01*
X164500609Y-123571000D01*
X164819579Y-123507553D01*
X165120042Y-123383097D01*
X165390451Y-123202415D01*
X165620415Y-122972451D01*
X165801097Y-122702042D01*
X165925553Y-122401579D01*
X165989000Y-122082609D01*
X165989000Y-121757391D01*
X165925553Y-121438421D01*
X165801097Y-121137958D01*
X165620415Y-120867549D01*
X165390451Y-120637585D01*
X165120042Y-120456903D01*
X164819579Y-120332447D01*
X164500609Y-120269000D01*
X164175391Y-120269000D01*
X163856421Y-120332447D01*
X163555958Y-120456903D01*
X163285549Y-120637585D01*
X163055585Y-120867549D01*
X162874903Y-121137958D01*
X162750447Y-121438421D01*
X162687000Y-121757391D01*
X158750000Y-121757391D01*
X158750000Y-115254991D01*
X176860200Y-115254991D01*
X176860200Y-115580209D01*
X176923647Y-115899179D01*
X177048103Y-116199642D01*
X177228785Y-116470051D01*
X177458749Y-116700015D01*
X177729158Y-116880697D01*
X178029621Y-117005153D01*
X178348591Y-117068600D01*
X178673809Y-117068600D01*
X178992779Y-117005153D01*
X179293242Y-116880697D01*
X179563651Y-116700015D01*
X179793615Y-116470051D01*
X179974297Y-116199642D01*
X180098753Y-115899179D01*
X180162200Y-115580209D01*
X180162200Y-115254991D01*
X180098753Y-114936021D01*
X179974297Y-114635558D01*
X179793615Y-114365149D01*
X179563651Y-114135185D01*
X179293242Y-113954503D01*
X178992779Y-113830047D01*
X178673809Y-113766600D01*
X178348591Y-113766600D01*
X178029621Y-113830047D01*
X177729158Y-113954503D01*
X177458749Y-114135185D01*
X177228785Y-114365149D01*
X177048103Y-114635558D01*
X176923647Y-114936021D01*
X176860200Y-115254991D01*
X158750000Y-115254991D01*
X158750000Y-112625268D01*
X158955378Y-112893627D01*
X159210809Y-113118208D01*
X159505146Y-113288642D01*
X159827077Y-113398379D01*
X160096200Y-113280800D01*
X160096200Y-111836200D01*
X160350200Y-111836200D01*
X160350200Y-113280800D01*
X160619323Y-113398379D01*
X160941254Y-113288642D01*
X161235591Y-113118208D01*
X161491022Y-112893627D01*
X161697731Y-112623529D01*
X161847775Y-112318294D01*
X161912375Y-112105322D01*
X161794325Y-111836200D01*
X160350200Y-111836200D01*
X160096200Y-111836200D01*
X160076200Y-111836200D01*
X160076200Y-111582200D01*
X160096200Y-111582200D01*
X160096200Y-110137600D01*
X160350200Y-110137600D01*
X160350200Y-111582200D01*
X161794325Y-111582200D01*
X161912375Y-111313078D01*
X161847775Y-111100106D01*
X161697731Y-110794871D01*
X161491022Y-110524773D01*
X161235591Y-110300192D01*
X160941254Y-110129758D01*
X160619323Y-110020021D01*
X160350200Y-110137600D01*
X160096200Y-110137600D01*
X159827077Y-110020021D01*
X159505146Y-110129758D01*
X159210809Y-110300192D01*
X158955378Y-110524773D01*
X158748669Y-110794871D01*
X158598625Y-111100106D01*
X158562589Y-111218909D01*
X158455896Y-111088904D01*
X158400093Y-111043107D01*
X158354296Y-110987304D01*
X158199590Y-110860340D01*
X158023087Y-110765998D01*
X157831571Y-110707902D01*
X157682302Y-110693200D01*
X154596501Y-110693200D01*
X154596501Y-110609200D01*
X154579336Y-110434926D01*
X154528503Y-110267349D01*
X154445953Y-110112909D01*
X154334859Y-109977541D01*
X154199491Y-109866447D01*
X154045051Y-109783897D01*
X153877474Y-109733064D01*
X153703200Y-109715899D01*
X151503200Y-109715899D01*
X151328926Y-109733064D01*
X151161349Y-109783897D01*
X151006909Y-109866447D01*
X150871541Y-109977541D01*
X150760447Y-110112909D01*
X150677897Y-110267349D01*
X150627064Y-110434926D01*
X150609899Y-110609200D01*
X150609899Y-112809200D01*
X150627064Y-112983474D01*
X150677897Y-113151051D01*
X150760447Y-113305491D01*
X150871541Y-113440859D01*
X151006909Y-113551953D01*
X151161349Y-113634503D01*
X151328926Y-113685336D01*
X151503200Y-113702501D01*
X153703200Y-113702501D01*
X153877474Y-113685336D01*
X154045051Y-113634503D01*
X154199491Y-113551953D01*
X154334859Y-113440859D01*
X154445953Y-113305491D01*
X154528503Y-113151051D01*
X154579336Y-112983474D01*
X154596501Y-112809200D01*
X154596501Y-112725200D01*
X156718001Y-112725200D01*
X156718001Y-136393085D01*
X156718000Y-136393085D01*
X156518830Y-136412702D01*
X156399831Y-136448800D01*
X154647301Y-136448800D01*
X154647301Y-136364800D01*
X154630136Y-136190526D01*
X154579303Y-136022949D01*
X154496753Y-135868509D01*
X154385659Y-135733141D01*
X154250291Y-135622047D01*
X154095851Y-135539497D01*
X153928274Y-135488664D01*
X153754000Y-135471499D01*
X151554000Y-135471499D01*
X151379726Y-135488664D01*
X151212149Y-135539497D01*
X151057709Y-135622047D01*
X150922341Y-135733141D01*
X150811247Y-135868509D01*
X150728697Y-136022949D01*
X150677864Y-136190526D01*
X150660699Y-136364800D01*
X150660699Y-138564800D01*
X150677864Y-138739074D01*
X150728697Y-138906651D01*
X150811247Y-139061091D01*
X150922341Y-139196459D01*
X151057709Y-139307553D01*
X151212149Y-139390103D01*
X151379726Y-139440936D01*
X151554000Y-139458101D01*
X153754000Y-139458101D01*
X153928274Y-139440936D01*
X154095851Y-139390103D01*
X154250291Y-139307553D01*
X154385659Y-139196459D01*
X154496753Y-139061091D01*
X154579303Y-138906651D01*
X154630136Y-138739074D01*
X154647301Y-138564800D01*
X154647301Y-138480800D01*
X155702001Y-138480800D01*
X155702000Y-162255200D01*
X154698101Y-162255200D01*
X154698101Y-162171200D01*
X154680936Y-161996926D01*
X154630103Y-161829349D01*
X154547553Y-161674909D01*
X154436459Y-161539541D01*
X154301091Y-161428447D01*
X154146651Y-161345897D01*
X153979074Y-161295064D01*
X153804800Y-161277899D01*
X151604800Y-161277899D01*
X151430526Y-161295064D01*
X151262949Y-161345897D01*
X151108509Y-161428447D01*
X150973141Y-161539541D01*
X150862047Y-161674909D01*
X150779497Y-161829349D01*
X150728664Y-161996926D01*
X150711499Y-162171200D01*
X150711499Y-164371200D01*
X150728664Y-164545474D01*
X150779497Y-164713051D01*
X150862047Y-164867491D01*
X150973141Y-165002859D01*
X151108509Y-165113953D01*
X151262949Y-165196503D01*
X151430526Y-165247336D01*
X151604800Y-165264501D01*
X153804800Y-165264501D01*
X153979074Y-165247336D01*
X154146651Y-165196503D01*
X154301091Y-165113953D01*
X154436459Y-165002859D01*
X154547553Y-164867491D01*
X154630103Y-164713051D01*
X154680936Y-164545474D01*
X154698101Y-164371200D01*
X154698101Y-164287200D01*
X154736801Y-164287200D01*
X154736800Y-169722800D01*
X149147902Y-169722800D01*
X149098000Y-169717885D01*
X149048098Y-169722800D01*
X148898829Y-169737502D01*
X148707313Y-169795598D01*
X148530810Y-169889940D01*
X148376104Y-170016904D01*
X148249140Y-170171610D01*
X148154798Y-170348113D01*
X148096702Y-170539629D01*
X148077085Y-170738800D01*
X121564000Y-170738800D01*
X121564000Y-158158000D01*
X134150699Y-158158000D01*
X134150699Y-160358000D01*
X134167864Y-160532274D01*
X134218697Y-160699851D01*
X134301247Y-160854291D01*
X134412341Y-160989659D01*
X134547709Y-161100753D01*
X134702149Y-161183303D01*
X134869726Y-161234136D01*
X135044000Y-161251301D01*
X137244000Y-161251301D01*
X137418274Y-161234136D01*
X137585851Y-161183303D01*
X137740291Y-161100753D01*
X137875659Y-160989659D01*
X137986753Y-160854291D01*
X138069303Y-160699851D01*
X138120136Y-160532274D01*
X138137301Y-160358000D01*
X138137301Y-159654122D01*
X142074825Y-159654122D01*
X142139425Y-159867094D01*
X142289469Y-160172329D01*
X142496178Y-160442427D01*
X142751609Y-160667008D01*
X143045946Y-160837442D01*
X143367877Y-160947179D01*
X143637000Y-160829600D01*
X143637000Y-159385000D01*
X143891000Y-159385000D01*
X143891000Y-160829600D01*
X144160123Y-160947179D01*
X144482054Y-160837442D01*
X144776391Y-160667008D01*
X145031822Y-160442427D01*
X145238531Y-160172329D01*
X145388575Y-159867094D01*
X145453175Y-159654122D01*
X145335125Y-159385000D01*
X143891000Y-159385000D01*
X143637000Y-159385000D01*
X142192875Y-159385000D01*
X142074825Y-159654122D01*
X138137301Y-159654122D01*
X138137301Y-158861878D01*
X142074825Y-158861878D01*
X142192875Y-159131000D01*
X143637000Y-159131000D01*
X143637000Y-157686400D01*
X143891000Y-157686400D01*
X143891000Y-159131000D01*
X145335125Y-159131000D01*
X145453175Y-158861878D01*
X145388575Y-158648906D01*
X145238531Y-158343671D01*
X145031822Y-158073573D01*
X144776391Y-157848992D01*
X144482054Y-157678558D01*
X144160123Y-157568821D01*
X143891000Y-157686400D01*
X143637000Y-157686400D01*
X143367877Y-157568821D01*
X143045946Y-157678558D01*
X142751609Y-157848992D01*
X142496178Y-158073573D01*
X142289469Y-158343671D01*
X142139425Y-158648906D01*
X142074825Y-158861878D01*
X138137301Y-158861878D01*
X138137301Y-158158000D01*
X138120136Y-157983726D01*
X138069303Y-157816149D01*
X137986753Y-157661709D01*
X137875659Y-157526341D01*
X137740291Y-157415247D01*
X137585851Y-157332697D01*
X137418274Y-157281864D01*
X137244000Y-157264699D01*
X135044000Y-157264699D01*
X134869726Y-157281864D01*
X134702149Y-157332697D01*
X134547709Y-157415247D01*
X134412341Y-157526341D01*
X134301247Y-157661709D01*
X134218697Y-157816149D01*
X134167864Y-157983726D01*
X134150699Y-158158000D01*
X121564000Y-158158000D01*
X121564000Y-132605600D01*
X134219279Y-132605600D01*
X134219279Y-134805600D01*
X134236444Y-134979874D01*
X134287277Y-135147451D01*
X134369827Y-135301891D01*
X134480921Y-135437259D01*
X134616289Y-135548353D01*
X134770729Y-135630903D01*
X134938306Y-135681736D01*
X135112580Y-135698901D01*
X137312580Y-135698901D01*
X137486854Y-135681736D01*
X137654431Y-135630903D01*
X137808871Y-135548353D01*
X137944239Y-135437259D01*
X138055333Y-135301891D01*
X138137883Y-135147451D01*
X138188716Y-134979874D01*
X138205881Y-134805600D01*
X138205881Y-134101722D01*
X142143405Y-134101722D01*
X142208005Y-134314694D01*
X142358049Y-134619929D01*
X142564758Y-134890027D01*
X142820189Y-135114608D01*
X143114526Y-135285042D01*
X143436457Y-135394779D01*
X143705580Y-135277200D01*
X143705580Y-133832600D01*
X143959580Y-133832600D01*
X143959580Y-135277200D01*
X144228703Y-135394779D01*
X144550634Y-135285042D01*
X144844971Y-135114608D01*
X145100402Y-134890027D01*
X145307111Y-134619929D01*
X145457155Y-134314694D01*
X145521755Y-134101722D01*
X145403705Y-133832600D01*
X143959580Y-133832600D01*
X143705580Y-133832600D01*
X142261455Y-133832600D01*
X142143405Y-134101722D01*
X138205881Y-134101722D01*
X138205881Y-133309478D01*
X142143405Y-133309478D01*
X142261455Y-133578600D01*
X143705580Y-133578600D01*
X143705580Y-132134000D01*
X143959580Y-132134000D01*
X143959580Y-133578600D01*
X145403705Y-133578600D01*
X145521755Y-133309478D01*
X145457155Y-133096506D01*
X145307111Y-132791271D01*
X145100402Y-132521173D01*
X144844971Y-132296592D01*
X144550634Y-132126158D01*
X144228703Y-132016421D01*
X143959580Y-132134000D01*
X143705580Y-132134000D01*
X143436457Y-132016421D01*
X143114526Y-132126158D01*
X142820189Y-132296592D01*
X142564758Y-132521173D01*
X142358049Y-132791271D01*
X142208005Y-133096506D01*
X142143405Y-133309478D01*
X138205881Y-133309478D01*
X138205881Y-132605600D01*
X138188716Y-132431326D01*
X138137883Y-132263749D01*
X138055333Y-132109309D01*
X137944239Y-131973941D01*
X137808871Y-131862847D01*
X137654431Y-131780297D01*
X137486854Y-131729464D01*
X137312580Y-131712299D01*
X135112580Y-131712299D01*
X134938306Y-131729464D01*
X134770729Y-131780297D01*
X134616289Y-131862847D01*
X134480921Y-131973941D01*
X134369827Y-132109309D01*
X134287277Y-132263749D01*
X134236444Y-132431326D01*
X134219279Y-132605600D01*
X121564000Y-132605600D01*
X121564000Y-107154800D01*
X134201499Y-107154800D01*
X134201499Y-109354800D01*
X134218664Y-109529074D01*
X134269497Y-109696651D01*
X134352047Y-109851091D01*
X134463141Y-109986459D01*
X134598509Y-110097553D01*
X134752949Y-110180103D01*
X134920526Y-110230936D01*
X135094800Y-110248101D01*
X137294800Y-110248101D01*
X137469074Y-110230936D01*
X137636651Y-110180103D01*
X137791091Y-110097553D01*
X137926459Y-109986459D01*
X138037553Y-109851091D01*
X138120103Y-109696651D01*
X138170936Y-109529074D01*
X138188101Y-109354800D01*
X138188101Y-108650922D01*
X142125625Y-108650922D01*
X142190225Y-108863894D01*
X142340269Y-109169129D01*
X142546978Y-109439227D01*
X142802409Y-109663808D01*
X143096746Y-109834242D01*
X143418677Y-109943979D01*
X143687800Y-109826400D01*
X143687800Y-108381800D01*
X143941800Y-108381800D01*
X143941800Y-109826400D01*
X144210923Y-109943979D01*
X144532854Y-109834242D01*
X144827191Y-109663808D01*
X145082622Y-109439227D01*
X145289331Y-109169129D01*
X145439375Y-108863894D01*
X145503975Y-108650922D01*
X145385925Y-108381800D01*
X143941800Y-108381800D01*
X143687800Y-108381800D01*
X142243675Y-108381800D01*
X142125625Y-108650922D01*
X138188101Y-108650922D01*
X138188101Y-107858678D01*
X142125625Y-107858678D01*
X142243675Y-108127800D01*
X143687800Y-108127800D01*
X143687800Y-106683200D01*
X143941800Y-106683200D01*
X143941800Y-108127800D01*
X145385925Y-108127800D01*
X145503975Y-107858678D01*
X145439375Y-107645706D01*
X145289331Y-107340471D01*
X145082622Y-107070373D01*
X144827191Y-106845792D01*
X144532854Y-106675358D01*
X144210923Y-106565621D01*
X143941800Y-106683200D01*
X143687800Y-106683200D01*
X143418677Y-106565621D01*
X143096746Y-106675358D01*
X142802409Y-106845792D01*
X142546978Y-107070373D01*
X142340269Y-107340471D01*
X142190225Y-107645706D01*
X142125625Y-107858678D01*
X138188101Y-107858678D01*
X138188101Y-107154800D01*
X138170936Y-106980526D01*
X138120103Y-106812949D01*
X138037553Y-106658509D01*
X137926459Y-106523141D01*
X137791091Y-106412047D01*
X137636651Y-106329497D01*
X137469074Y-106278664D01*
X137294800Y-106261499D01*
X135094800Y-106261499D01*
X134920526Y-106278664D01*
X134752949Y-106329497D01*
X134598509Y-106412047D01*
X134463141Y-106523141D01*
X134352047Y-106658509D01*
X134269497Y-106812949D01*
X134218664Y-106980526D01*
X134201499Y-107154800D01*
X121564000Y-107154800D01*
X121564000Y-96204991D01*
X162687000Y-96204991D01*
X162687000Y-96530209D01*
X162750447Y-96849179D01*
X162874903Y-97149642D01*
X163055585Y-97420051D01*
X163285549Y-97650015D01*
X163555958Y-97830697D01*
X163856421Y-97955153D01*
X164175391Y-98018600D01*
X164500609Y-98018600D01*
X164819579Y-97955153D01*
X165120042Y-97830697D01*
X165390451Y-97650015D01*
X165620415Y-97420051D01*
X165801097Y-97149642D01*
X165925553Y-96849179D01*
X165989000Y-96530209D01*
X165989000Y-96204991D01*
X165925553Y-95886021D01*
X165801097Y-95585558D01*
X165620415Y-95315149D01*
X165390451Y-95085185D01*
X165120042Y-94904503D01*
X164819579Y-94780047D01*
X164500609Y-94716600D01*
X164175391Y-94716600D01*
X163856421Y-94780047D01*
X163555958Y-94904503D01*
X163285549Y-95085185D01*
X163055585Y-95315149D01*
X162874903Y-95585558D01*
X162750447Y-95886021D01*
X162687000Y-96204991D01*
X121564000Y-96204991D01*
X121564000Y-81096000D01*
X153557899Y-81096000D01*
X153557899Y-83496000D01*
X153575064Y-83670274D01*
X153625897Y-83837851D01*
X153708447Y-83992291D01*
X153819541Y-84127659D01*
X153954909Y-84238753D01*
X154109349Y-84321303D01*
X154276926Y-84372136D01*
X154451200Y-84389301D01*
X156851200Y-84389301D01*
X157025474Y-84372136D01*
X157193051Y-84321303D01*
X157347491Y-84238753D01*
X157482859Y-84127659D01*
X157593953Y-83992291D01*
X157676503Y-83837851D01*
X157727336Y-83670274D01*
X157736820Y-83573980D01*
X158052826Y-83573980D01*
X158172714Y-83858836D01*
X158496410Y-84019699D01*
X158845269Y-84114322D01*
X159205884Y-84139067D01*
X159564398Y-84092985D01*
X159907033Y-83977846D01*
X160129686Y-83858836D01*
X160249574Y-83573980D01*
X159151200Y-82475605D01*
X158052826Y-83573980D01*
X157736820Y-83573980D01*
X157744501Y-83496000D01*
X157744501Y-83340200D01*
X157873220Y-83394374D01*
X158971595Y-82296000D01*
X159330805Y-82296000D01*
X160429180Y-83394374D01*
X160714036Y-83274486D01*
X160874899Y-82950790D01*
X160969522Y-82601931D01*
X160994267Y-82241316D01*
X160948185Y-81882802D01*
X160833046Y-81540167D01*
X160714036Y-81317514D01*
X160429180Y-81197626D01*
X159330805Y-82296000D01*
X158971595Y-82296000D01*
X157873220Y-81197626D01*
X157744501Y-81251800D01*
X157744501Y-81096000D01*
X157736821Y-81018020D01*
X158052826Y-81018020D01*
X159151200Y-82116395D01*
X160249574Y-81018020D01*
X160129686Y-80733164D01*
X159805990Y-80572301D01*
X159457131Y-80477678D01*
X159096516Y-80452933D01*
X158738002Y-80499015D01*
X158395367Y-80614154D01*
X158172714Y-80733164D01*
X158052826Y-81018020D01*
X157736821Y-81018020D01*
X157727336Y-80921726D01*
X157676503Y-80754149D01*
X157593953Y-80599709D01*
X157482859Y-80464341D01*
X157347491Y-80353247D01*
X157193051Y-80270697D01*
X157025474Y-80219864D01*
X156851200Y-80202699D01*
X154451200Y-80202699D01*
X154276926Y-80219864D01*
X154109349Y-80270697D01*
X153954909Y-80353247D01*
X153819541Y-80464341D01*
X153708447Y-80599709D01*
X153625897Y-80754149D01*
X153575064Y-80921726D01*
X153557899Y-81096000D01*
X121564000Y-81096000D01*
X121564000Y-69494000D01*
X183236000Y-69494000D01*
X183236001Y-220066000D01*
X183236001Y-220066000D01*
G37*
X183236001Y-220066000D02*
X121564000Y-220066000D01*
X121564000Y-208291980D01*
X131438826Y-208291980D01*
X131558714Y-208576836D01*
X131882410Y-208737699D01*
X132231269Y-208832322D01*
X132591884Y-208857067D01*
X132950398Y-208810985D01*
X133293033Y-208695846D01*
X133515686Y-208576836D01*
X133635574Y-208291980D01*
X132537200Y-207193605D01*
X131438826Y-208291980D01*
X121564000Y-208291980D01*
X121564000Y-207068684D01*
X130694133Y-207068684D01*
X130740215Y-207427198D01*
X130855354Y-207769833D01*
X130974364Y-207992486D01*
X131259220Y-208112374D01*
X132357595Y-207014000D01*
X132716805Y-207014000D01*
X133815180Y-208112374D01*
X134100036Y-207992486D01*
X134260899Y-207668790D01*
X134355522Y-207319931D01*
X134380267Y-206959316D01*
X134334185Y-206600802D01*
X134219046Y-206258167D01*
X134100036Y-206035514D01*
X133815180Y-205915626D01*
X132716805Y-207014000D01*
X132357595Y-207014000D01*
X131259220Y-205915626D01*
X130974364Y-206035514D01*
X130813501Y-206359210D01*
X130718878Y-206708069D01*
X130694133Y-207068684D01*
X121564000Y-207068684D01*
X121564000Y-174314000D01*
X130443899Y-174314000D01*
X130443899Y-176714000D01*
X130461064Y-176888274D01*
X130511897Y-177055851D01*
X130594447Y-177210291D01*
X130705541Y-177345659D01*
X130840909Y-177456753D01*
X130995349Y-177539303D01*
X131043115Y-177553793D01*
X130914568Y-177682340D01*
X130685952Y-178024487D01*
X130528479Y-178404661D01*
X130448200Y-178808251D01*
X130448200Y-179219749D01*
X130528479Y-179623339D01*
X130685952Y-180003513D01*
X130914568Y-180345660D01*
X131205540Y-180636632D01*
X131396159Y-180764000D01*
X131205540Y-180891368D01*
X130914568Y-181182340D01*
X130685952Y-181524487D01*
X130528479Y-181904661D01*
X130448200Y-182308251D01*
X130448200Y-182719749D01*
X130528479Y-183123339D01*
X130685952Y-183503513D01*
X130914568Y-183845660D01*
X131205540Y-184136632D01*
X131396159Y-184264000D01*
X131205540Y-184391368D01*
X130914568Y-184682340D01*
X130685952Y-185024487D01*
X130528479Y-185404661D01*
X130448200Y-185808251D01*
X130448200Y-186219749D01*
X130528479Y-186623339D01*
X130685952Y-187003513D01*
X130914568Y-187345660D01*
X131205540Y-187636632D01*
X131396159Y-187764000D01*
X131205540Y-187891368D01*
X130914568Y-188182340D01*
X130685952Y-188524487D01*
X130528479Y-188904661D01*
X130448200Y-189308251D01*
X130448200Y-189719749D01*
X130528479Y-190123339D01*
X130685952Y-190503513D01*
X130914568Y-190845660D01*
X131205540Y-191136632D01*
X131396159Y-191264000D01*
X131205540Y-191391368D01*
X130914568Y-191682340D01*
X130685952Y-192024487D01*
X130528479Y-192404661D01*
X130448200Y-192808251D01*
X130448200Y-193219749D01*
X130528479Y-193623339D01*
X130685952Y-194003513D01*
X130914568Y-194345660D01*
X131205540Y-194636632D01*
X131396159Y-194764000D01*
X131205540Y-194891368D01*
X130914568Y-195182340D01*
X130685952Y-195524487D01*
X130528479Y-195904661D01*
X130448200Y-196308251D01*
X130448200Y-196719749D01*
X130528479Y-197123339D01*
X130685952Y-197503513D01*
X130914568Y-197845660D01*
X131205540Y-198136632D01*
X131396159Y-198264000D01*
X131205540Y-198391368D01*
X130914568Y-198682340D01*
X130685952Y-199024487D01*
X130528479Y-199404661D01*
X130448200Y-199808251D01*
X130448200Y-200219749D01*
X130528479Y-200623339D01*
X130685952Y-201003513D01*
X130914568Y-201345660D01*
X131205540Y-201636632D01*
X131396159Y-201764000D01*
X131205540Y-201891368D01*
X130914568Y-202182340D01*
X130685952Y-202524487D01*
X130528479Y-202904661D01*
X130448200Y-203308251D01*
X130448200Y-203719749D01*
X130528479Y-204123339D01*
X130685952Y-204503513D01*
X130914568Y-204845660D01*
X131205540Y-205136632D01*
X131547687Y-205365248D01*
X131644459Y-205405332D01*
X131558714Y-205451164D01*
X131438826Y-205736020D01*
X132537200Y-206834395D01*
X133635574Y-205736020D01*
X133515686Y-205451164D01*
X133426407Y-205406796D01*
X133526713Y-205365248D01*
X133868860Y-205136632D01*
X134159832Y-204845660D01*
X134388448Y-204503513D01*
X134545921Y-204123339D01*
X134626200Y-203719749D01*
X134626200Y-203308251D01*
X134545921Y-202904661D01*
X134388448Y-202524487D01*
X134159832Y-202182340D01*
X133868860Y-201891368D01*
X133678241Y-201764000D01*
X133868860Y-201636632D01*
X134159832Y-201345660D01*
X134388448Y-201003513D01*
X134545921Y-200623339D01*
X134626200Y-200219749D01*
X134626200Y-199808251D01*
X134545921Y-199404661D01*
X134388448Y-199024487D01*
X134159832Y-198682340D01*
X133868860Y-198391368D01*
X133678241Y-198264000D01*
X133868860Y-198136632D01*
X134159832Y-197845660D01*
X134388448Y-197503513D01*
X134545921Y-197123339D01*
X134626200Y-196719749D01*
X134626200Y-196308251D01*
X134545921Y-195904661D01*
X134388448Y-195524487D01*
X134159832Y-195182340D01*
X133868860Y-194891368D01*
X133678241Y-194764000D01*
X133868860Y-194636632D01*
X134159832Y-194345660D01*
X134388448Y-194003513D01*
X134545921Y-193623339D01*
X134626200Y-193219749D01*
X134626200Y-192808251D01*
X134545921Y-192404661D01*
X134388448Y-192024487D01*
X134159832Y-191682340D01*
X133868860Y-191391368D01*
X133678241Y-191264000D01*
X133868860Y-191136632D01*
X134159832Y-190845660D01*
X134388448Y-190503513D01*
X134545921Y-190123339D01*
X134626200Y-189719749D01*
X134626200Y-189308251D01*
X134545921Y-188904661D01*
X134388448Y-188524487D01*
X134159832Y-188182340D01*
X133868860Y-187891368D01*
X133678241Y-187764000D01*
X133868860Y-187636632D01*
X134159832Y-187345660D01*
X134388448Y-187003513D01*
X134545921Y-186623339D01*
X134626200Y-186219749D01*
X134626200Y-185808251D01*
X134545921Y-185404661D01*
X134388448Y-185024487D01*
X134159832Y-184682340D01*
X133868860Y-184391368D01*
X133678241Y-184264000D01*
X133868860Y-184136632D01*
X134159832Y-183845660D01*
X134388448Y-183503513D01*
X134545921Y-183123339D01*
X134626200Y-182719749D01*
X134626200Y-182308251D01*
X134545921Y-181904661D01*
X134388448Y-181524487D01*
X134159832Y-181182340D01*
X133868860Y-180891368D01*
X133678241Y-180764000D01*
X133868860Y-180636632D01*
X134159832Y-180345660D01*
X134388448Y-180003513D01*
X134545921Y-179623339D01*
X134626200Y-179219749D01*
X134626200Y-178808251D01*
X134545921Y-178404661D01*
X134388448Y-178024487D01*
X134159832Y-177682340D01*
X134031285Y-177553793D01*
X134079051Y-177539303D01*
X134233491Y-177456753D01*
X134368859Y-177345659D01*
X134479953Y-177210291D01*
X134562503Y-177055851D01*
X134613336Y-176888274D01*
X134630501Y-176714000D01*
X134630501Y-174314000D01*
X134613336Y-174139726D01*
X134562503Y-173972149D01*
X134479953Y-173817709D01*
X134368859Y-173682341D01*
X134233491Y-173571247D01*
X134079051Y-173488697D01*
X133911474Y-173437864D01*
X133737200Y-173420699D01*
X131337200Y-173420699D01*
X131162926Y-173437864D01*
X130995349Y-173488697D01*
X130840909Y-173571247D01*
X130705541Y-173682341D01*
X130594447Y-173817709D01*
X130511897Y-173972149D01*
X130461064Y-174139726D01*
X130443899Y-174314000D01*
X121564000Y-174314000D01*
X121564000Y-170738800D01*
X148077085Y-170738800D01*
X148082001Y-170788712D01*
X148082000Y-205690098D01*
X148077085Y-205740000D01*
X148096702Y-205939171D01*
X148154798Y-206130687D01*
X148222937Y-206258167D01*
X148249140Y-206307190D01*
X148376104Y-206461896D01*
X148530810Y-206588860D01*
X148707313Y-206683202D01*
X148898829Y-206741298D01*
X149098000Y-206760915D01*
X149147902Y-206756000D01*
X154428612Y-206756000D01*
X154592429Y-206865459D01*
X154823555Y-206961195D01*
X155068916Y-207010000D01*
X155319084Y-207010000D01*
X155564445Y-206961195D01*
X155795571Y-206865459D01*
X156003578Y-206726473D01*
X156180473Y-206549578D01*
X156319459Y-206341571D01*
X156415195Y-206110445D01*
X156464000Y-205865084D01*
X156464000Y-205614916D01*
X156415195Y-205369555D01*
X156319459Y-205138429D01*
X156180473Y-204930422D01*
X156003578Y-204753527D01*
X155795571Y-204614541D01*
X155564445Y-204518805D01*
X155319084Y-204470000D01*
X155068916Y-204470000D01*
X154823555Y-204518805D01*
X154592429Y-204614541D01*
X154428612Y-204724000D01*
X150114000Y-204724000D01*
X150114000Y-200913912D01*
X150164800Y-200918915D01*
X150214702Y-200914000D01*
X154428612Y-200914000D01*
X154592429Y-201023459D01*
X154823555Y-201119195D01*
X155068916Y-201168000D01*
X155319084Y-201168000D01*
X155564445Y-201119195D01*
X155795571Y-201023459D01*
X156003578Y-200884473D01*
X156180473Y-200707578D01*
X156319459Y-200499571D01*
X156415195Y-200268445D01*
X156464000Y-200023084D01*
X156464000Y-199772916D01*
X156415195Y-199527555D01*
X156319459Y-199296429D01*
X156180473Y-199088422D01*
X156003578Y-198911527D01*
X155795571Y-198772541D01*
X155564445Y-198676805D01*
X155319084Y-198628000D01*
X155068916Y-198628000D01*
X154823555Y-198676805D01*
X154592429Y-198772541D01*
X154428612Y-198882000D01*
X151180800Y-198882000D01*
X151180800Y-194970400D01*
X154428612Y-194970400D01*
X154592429Y-195079859D01*
X154823555Y-195175595D01*
X155068916Y-195224400D01*
X155319084Y-195224400D01*
X155564445Y-195175595D01*
X155795571Y-195079859D01*
X156003578Y-194940873D01*
X156180473Y-194763978D01*
X156319459Y-194555971D01*
X156415195Y-194324845D01*
X156464000Y-194079484D01*
X156464000Y-193829316D01*
X156415195Y-193583955D01*
X156319459Y-193352829D01*
X156180473Y-193144822D01*
X156003578Y-192967927D01*
X155795571Y-192828941D01*
X155564445Y-192733205D01*
X155319084Y-192684400D01*
X155068916Y-192684400D01*
X154823555Y-192733205D01*
X154592429Y-192828941D01*
X154428612Y-192938400D01*
X152044400Y-192938400D01*
X152044400Y-188038116D01*
X153924000Y-188038116D01*
X153924000Y-188288284D01*
X153972805Y-188533645D01*
X154068541Y-188764771D01*
X154207527Y-188972778D01*
X154384422Y-189149673D01*
X154592429Y-189288659D01*
X154823555Y-189384395D01*
X155068916Y-189433200D01*
X155319084Y-189433200D01*
X155564445Y-189384395D01*
X155795571Y-189288659D01*
X156003578Y-189149673D01*
X156180473Y-188972778D01*
X156319459Y-188764771D01*
X156415195Y-188533645D01*
X156464000Y-188288284D01*
X156464000Y-188038116D01*
X156415195Y-187792755D01*
X156319459Y-187561629D01*
X156180473Y-187353622D01*
X156003578Y-187176727D01*
X155795571Y-187037741D01*
X155564445Y-186942005D01*
X155319084Y-186893200D01*
X155068916Y-186893200D01*
X154823555Y-186942005D01*
X154592429Y-187037741D01*
X154384422Y-187176727D01*
X154207527Y-187353622D01*
X154068541Y-187561629D01*
X153972805Y-187792755D01*
X153924000Y-188038116D01*
X152044400Y-188038116D01*
X152044400Y-182094516D01*
X153924000Y-182094516D01*
X153924000Y-182344684D01*
X153972805Y-182590045D01*
X154068541Y-182821171D01*
X154207527Y-183029178D01*
X154384422Y-183206073D01*
X154592429Y-183345059D01*
X154823555Y-183440795D01*
X155068916Y-183489600D01*
X155319084Y-183489600D01*
X155564445Y-183440795D01*
X155795571Y-183345059D01*
X156003578Y-183206073D01*
X156180473Y-183029178D01*
X156319459Y-182821171D01*
X156415195Y-182590045D01*
X156464000Y-182344684D01*
X156464000Y-182094516D01*
X156415195Y-181849155D01*
X156319459Y-181618029D01*
X156180473Y-181410022D01*
X156003578Y-181233127D01*
X155795571Y-181094141D01*
X155564445Y-180998405D01*
X155319084Y-180949600D01*
X155068916Y-180949600D01*
X154823555Y-180998405D01*
X154592429Y-181094141D01*
X154384422Y-181233127D01*
X154207527Y-181410022D01*
X154068541Y-181618029D01*
X153972805Y-181849155D01*
X153924000Y-182094516D01*
X152044400Y-182094516D01*
X152044400Y-176354116D01*
X153924000Y-176354116D01*
X153924000Y-176604284D01*
X153972805Y-176849645D01*
X154068541Y-177080771D01*
X154207527Y-177288778D01*
X154384422Y-177465673D01*
X154592429Y-177604659D01*
X154823555Y-177700395D01*
X155068916Y-177749200D01*
X155319084Y-177749200D01*
X155564445Y-177700395D01*
X155795571Y-177604659D01*
X156003578Y-177465673D01*
X156180473Y-177288778D01*
X156319459Y-177080771D01*
X156415195Y-176849645D01*
X156464000Y-176604284D01*
X156464000Y-176354116D01*
X156415195Y-176108755D01*
X156319459Y-175877629D01*
X156180473Y-175669622D01*
X156003578Y-175492727D01*
X155795571Y-175353741D01*
X155564445Y-175258005D01*
X155319084Y-175209200D01*
X155068916Y-175209200D01*
X154823555Y-175258005D01*
X154592429Y-175353741D01*
X154384422Y-175492727D01*
X154207527Y-175669622D01*
X154068541Y-175877629D01*
X153972805Y-176108755D01*
X153924000Y-176354116D01*
X152044400Y-176354116D01*
X152044400Y-173736000D01*
X157684098Y-173736000D01*
X157734000Y-173740915D01*
X157783902Y-173736000D01*
X157933171Y-173721298D01*
X158124687Y-173663202D01*
X158301190Y-173568860D01*
X158455896Y-173441896D01*
X158582860Y-173287190D01*
X158677202Y-173110687D01*
X158735298Y-172919171D01*
X158754915Y-172720000D01*
X158750000Y-172670098D01*
X158750000Y-163981551D01*
X158850269Y-164185529D01*
X159056978Y-164455627D01*
X159312409Y-164680208D01*
X159606746Y-164850642D01*
X159928677Y-164960379D01*
X160197800Y-164842800D01*
X160197800Y-163398200D01*
X160451800Y-163398200D01*
X160451800Y-164842800D01*
X160720923Y-164960379D01*
X161042854Y-164850642D01*
X161337191Y-164680208D01*
X161592622Y-164455627D01*
X161799331Y-164185529D01*
X161949375Y-163880294D01*
X162013975Y-163667322D01*
X161895925Y-163398200D01*
X160451800Y-163398200D01*
X160197800Y-163398200D01*
X160177800Y-163398200D01*
X160177800Y-163144200D01*
X160197800Y-163144200D01*
X160197800Y-161699600D01*
X160451800Y-161699600D01*
X160451800Y-163144200D01*
X161895925Y-163144200D01*
X162013975Y-162875078D01*
X161949375Y-162662106D01*
X161799331Y-162356871D01*
X161592622Y-162086773D01*
X161337191Y-161862192D01*
X161042854Y-161691758D01*
X160720923Y-161582021D01*
X160451800Y-161699600D01*
X160197800Y-161699600D01*
X159928677Y-161582021D01*
X159606746Y-161691758D01*
X159312409Y-161862192D01*
X159056978Y-162086773D01*
X158850269Y-162356871D01*
X158750000Y-162560849D01*
X158750000Y-147309791D01*
X162687000Y-147309791D01*
X162687000Y-147635009D01*
X162750447Y-147953979D01*
X162874903Y-148254442D01*
X163055585Y-148524851D01*
X163285549Y-148754815D01*
X163555958Y-148935497D01*
X163856421Y-149059953D01*
X164175391Y-149123400D01*
X164500609Y-149123400D01*
X164819579Y-149059953D01*
X165120042Y-148935497D01*
X165390451Y-148754815D01*
X165620415Y-148524851D01*
X165801097Y-148254442D01*
X165925553Y-147953979D01*
X165989000Y-147635009D01*
X165989000Y-147309791D01*
X165925553Y-146990821D01*
X165801097Y-146690358D01*
X165620415Y-146419949D01*
X165390451Y-146189985D01*
X165120042Y-146009303D01*
X164819579Y-145884847D01*
X164500609Y-145821400D01*
X164175391Y-145821400D01*
X163856421Y-145884847D01*
X163555958Y-146009303D01*
X163285549Y-146189985D01*
X163055585Y-146419949D01*
X162874903Y-146690358D01*
X162750447Y-146990821D01*
X162687000Y-147309791D01*
X158750000Y-147309791D01*
X158750000Y-138278494D01*
X158799469Y-138379129D01*
X159006178Y-138649227D01*
X159261609Y-138873808D01*
X159555946Y-139044242D01*
X159877877Y-139153979D01*
X160147000Y-139036400D01*
X160147000Y-137591800D01*
X160401000Y-137591800D01*
X160401000Y-139036400D01*
X160670123Y-139153979D01*
X160992054Y-139044242D01*
X161286391Y-138873808D01*
X161541822Y-138649227D01*
X161748531Y-138379129D01*
X161898575Y-138073894D01*
X161963175Y-137860922D01*
X161845125Y-137591800D01*
X160401000Y-137591800D01*
X160147000Y-137591800D01*
X160127000Y-137591800D01*
X160127000Y-137337800D01*
X160147000Y-137337800D01*
X160147000Y-135893200D01*
X160401000Y-135893200D01*
X160401000Y-137337800D01*
X161845125Y-137337800D01*
X161963175Y-137068678D01*
X161898575Y-136855706D01*
X161748531Y-136550471D01*
X161541822Y-136280373D01*
X161286391Y-136055792D01*
X160992054Y-135885358D01*
X160670123Y-135775621D01*
X160401000Y-135893200D01*
X160147000Y-135893200D01*
X159877877Y-135775621D01*
X159555946Y-135885358D01*
X159261609Y-136055792D01*
X159006178Y-136280373D01*
X158799469Y-136550471D01*
X158750000Y-136651106D01*
X158750000Y-121757391D01*
X162687000Y-121757391D01*
X162687000Y-122082609D01*
X162750447Y-122401579D01*
X162874903Y-122702042D01*
X163055585Y-122972451D01*
X163285549Y-123202415D01*
X163555958Y-123383097D01*
X163856421Y-123507553D01*
X164175391Y-123571000D01*
X164500609Y-123571000D01*
X164819579Y-123507553D01*
X165120042Y-123383097D01*
X165390451Y-123202415D01*
X165620415Y-122972451D01*
X165801097Y-122702042D01*
X165925553Y-122401579D01*
X165989000Y-122082609D01*
X165989000Y-121757391D01*
X165925553Y-121438421D01*
X165801097Y-121137958D01*
X165620415Y-120867549D01*
X165390451Y-120637585D01*
X165120042Y-120456903D01*
X164819579Y-120332447D01*
X164500609Y-120269000D01*
X164175391Y-120269000D01*
X163856421Y-120332447D01*
X163555958Y-120456903D01*
X163285549Y-120637585D01*
X163055585Y-120867549D01*
X162874903Y-121137958D01*
X162750447Y-121438421D01*
X162687000Y-121757391D01*
X158750000Y-121757391D01*
X158750000Y-115254991D01*
X176860200Y-115254991D01*
X176860200Y-115580209D01*
X176923647Y-115899179D01*
X177048103Y-116199642D01*
X177228785Y-116470051D01*
X177458749Y-116700015D01*
X177729158Y-116880697D01*
X178029621Y-117005153D01*
X178348591Y-117068600D01*
X178673809Y-117068600D01*
X178992779Y-117005153D01*
X179293242Y-116880697D01*
X179563651Y-116700015D01*
X179793615Y-116470051D01*
X179974297Y-116199642D01*
X180098753Y-115899179D01*
X180162200Y-115580209D01*
X180162200Y-115254991D01*
X180098753Y-114936021D01*
X179974297Y-114635558D01*
X179793615Y-114365149D01*
X179563651Y-114135185D01*
X179293242Y-113954503D01*
X178992779Y-113830047D01*
X178673809Y-113766600D01*
X178348591Y-113766600D01*
X178029621Y-113830047D01*
X177729158Y-113954503D01*
X177458749Y-114135185D01*
X177228785Y-114365149D01*
X177048103Y-114635558D01*
X176923647Y-114936021D01*
X176860200Y-115254991D01*
X158750000Y-115254991D01*
X158750000Y-112625268D01*
X158955378Y-112893627D01*
X159210809Y-113118208D01*
X159505146Y-113288642D01*
X159827077Y-113398379D01*
X160096200Y-113280800D01*
X160096200Y-111836200D01*
X160350200Y-111836200D01*
X160350200Y-113280800D01*
X160619323Y-113398379D01*
X160941254Y-113288642D01*
X161235591Y-113118208D01*
X161491022Y-112893627D01*
X161697731Y-112623529D01*
X161847775Y-112318294D01*
X161912375Y-112105322D01*
X161794325Y-111836200D01*
X160350200Y-111836200D01*
X160096200Y-111836200D01*
X160076200Y-111836200D01*
X160076200Y-111582200D01*
X160096200Y-111582200D01*
X160096200Y-110137600D01*
X160350200Y-110137600D01*
X160350200Y-111582200D01*
X161794325Y-111582200D01*
X161912375Y-111313078D01*
X161847775Y-111100106D01*
X161697731Y-110794871D01*
X161491022Y-110524773D01*
X161235591Y-110300192D01*
X160941254Y-110129758D01*
X160619323Y-110020021D01*
X160350200Y-110137600D01*
X160096200Y-110137600D01*
X159827077Y-110020021D01*
X159505146Y-110129758D01*
X159210809Y-110300192D01*
X158955378Y-110524773D01*
X158748669Y-110794871D01*
X158598625Y-111100106D01*
X158562589Y-111218909D01*
X158455896Y-111088904D01*
X158400093Y-111043107D01*
X158354296Y-110987304D01*
X158199590Y-110860340D01*
X158023087Y-110765998D01*
X157831571Y-110707902D01*
X157682302Y-110693200D01*
X154596501Y-110693200D01*
X154596501Y-110609200D01*
X154579336Y-110434926D01*
X154528503Y-110267349D01*
X154445953Y-110112909D01*
X154334859Y-109977541D01*
X154199491Y-109866447D01*
X154045051Y-109783897D01*
X153877474Y-109733064D01*
X153703200Y-109715899D01*
X151503200Y-109715899D01*
X151328926Y-109733064D01*
X151161349Y-109783897D01*
X151006909Y-109866447D01*
X150871541Y-109977541D01*
X150760447Y-110112909D01*
X150677897Y-110267349D01*
X150627064Y-110434926D01*
X150609899Y-110609200D01*
X150609899Y-112809200D01*
X150627064Y-112983474D01*
X150677897Y-113151051D01*
X150760447Y-113305491D01*
X150871541Y-113440859D01*
X151006909Y-113551953D01*
X151161349Y-113634503D01*
X151328926Y-113685336D01*
X151503200Y-113702501D01*
X153703200Y-113702501D01*
X153877474Y-113685336D01*
X154045051Y-113634503D01*
X154199491Y-113551953D01*
X154334859Y-113440859D01*
X154445953Y-113305491D01*
X154528503Y-113151051D01*
X154579336Y-112983474D01*
X154596501Y-112809200D01*
X154596501Y-112725200D01*
X156718001Y-112725200D01*
X156718001Y-136393085D01*
X156718000Y-136393085D01*
X156518830Y-136412702D01*
X156399831Y-136448800D01*
X154647301Y-136448800D01*
X154647301Y-136364800D01*
X154630136Y-136190526D01*
X154579303Y-136022949D01*
X154496753Y-135868509D01*
X154385659Y-135733141D01*
X154250291Y-135622047D01*
X154095851Y-135539497D01*
X153928274Y-135488664D01*
X153754000Y-135471499D01*
X151554000Y-135471499D01*
X151379726Y-135488664D01*
X151212149Y-135539497D01*
X151057709Y-135622047D01*
X150922341Y-135733141D01*
X150811247Y-135868509D01*
X150728697Y-136022949D01*
X150677864Y-136190526D01*
X150660699Y-136364800D01*
X150660699Y-138564800D01*
X150677864Y-138739074D01*
X150728697Y-138906651D01*
X150811247Y-139061091D01*
X150922341Y-139196459D01*
X151057709Y-139307553D01*
X151212149Y-139390103D01*
X151379726Y-139440936D01*
X151554000Y-139458101D01*
X153754000Y-139458101D01*
X153928274Y-139440936D01*
X154095851Y-139390103D01*
X154250291Y-139307553D01*
X154385659Y-139196459D01*
X154496753Y-139061091D01*
X154579303Y-138906651D01*
X154630136Y-138739074D01*
X154647301Y-138564800D01*
X154647301Y-138480800D01*
X155702001Y-138480800D01*
X155702000Y-162255200D01*
X154698101Y-162255200D01*
X154698101Y-162171200D01*
X154680936Y-161996926D01*
X154630103Y-161829349D01*
X154547553Y-161674909D01*
X154436459Y-161539541D01*
X154301091Y-161428447D01*
X154146651Y-161345897D01*
X153979074Y-161295064D01*
X153804800Y-161277899D01*
X151604800Y-161277899D01*
X151430526Y-161295064D01*
X151262949Y-161345897D01*
X151108509Y-161428447D01*
X150973141Y-161539541D01*
X150862047Y-161674909D01*
X150779497Y-161829349D01*
X150728664Y-161996926D01*
X150711499Y-162171200D01*
X150711499Y-164371200D01*
X150728664Y-164545474D01*
X150779497Y-164713051D01*
X150862047Y-164867491D01*
X150973141Y-165002859D01*
X151108509Y-165113953D01*
X151262949Y-165196503D01*
X151430526Y-165247336D01*
X151604800Y-165264501D01*
X153804800Y-165264501D01*
X153979074Y-165247336D01*
X154146651Y-165196503D01*
X154301091Y-165113953D01*
X154436459Y-165002859D01*
X154547553Y-164867491D01*
X154630103Y-164713051D01*
X154680936Y-164545474D01*
X154698101Y-164371200D01*
X154698101Y-164287200D01*
X154736801Y-164287200D01*
X154736800Y-169722800D01*
X149147902Y-169722800D01*
X149098000Y-169717885D01*
X149048098Y-169722800D01*
X148898829Y-169737502D01*
X148707313Y-169795598D01*
X148530810Y-169889940D01*
X148376104Y-170016904D01*
X148249140Y-170171610D01*
X148154798Y-170348113D01*
X148096702Y-170539629D01*
X148077085Y-170738800D01*
X121564000Y-170738800D01*
X121564000Y-158158000D01*
X134150699Y-158158000D01*
X134150699Y-160358000D01*
X134167864Y-160532274D01*
X134218697Y-160699851D01*
X134301247Y-160854291D01*
X134412341Y-160989659D01*
X134547709Y-161100753D01*
X134702149Y-161183303D01*
X134869726Y-161234136D01*
X135044000Y-161251301D01*
X137244000Y-161251301D01*
X137418274Y-161234136D01*
X137585851Y-161183303D01*
X137740291Y-161100753D01*
X137875659Y-160989659D01*
X137986753Y-160854291D01*
X138069303Y-160699851D01*
X138120136Y-160532274D01*
X138137301Y-160358000D01*
X138137301Y-159654122D01*
X142074825Y-159654122D01*
X142139425Y-159867094D01*
X142289469Y-160172329D01*
X142496178Y-160442427D01*
X142751609Y-160667008D01*
X143045946Y-160837442D01*
X143367877Y-160947179D01*
X143637000Y-160829600D01*
X143637000Y-159385000D01*
X143891000Y-159385000D01*
X143891000Y-160829600D01*
X144160123Y-160947179D01*
X144482054Y-160837442D01*
X144776391Y-160667008D01*
X145031822Y-160442427D01*
X145238531Y-160172329D01*
X145388575Y-159867094D01*
X145453175Y-159654122D01*
X145335125Y-159385000D01*
X143891000Y-159385000D01*
X143637000Y-159385000D01*
X142192875Y-159385000D01*
X142074825Y-159654122D01*
X138137301Y-159654122D01*
X138137301Y-158861878D01*
X142074825Y-158861878D01*
X142192875Y-159131000D01*
X143637000Y-159131000D01*
X143637000Y-157686400D01*
X143891000Y-157686400D01*
X143891000Y-159131000D01*
X145335125Y-159131000D01*
X145453175Y-158861878D01*
X145388575Y-158648906D01*
X145238531Y-158343671D01*
X145031822Y-158073573D01*
X144776391Y-157848992D01*
X144482054Y-157678558D01*
X144160123Y-157568821D01*
X143891000Y-157686400D01*
X143637000Y-157686400D01*
X143367877Y-157568821D01*
X143045946Y-157678558D01*
X142751609Y-157848992D01*
X142496178Y-158073573D01*
X142289469Y-158343671D01*
X142139425Y-158648906D01*
X142074825Y-158861878D01*
X138137301Y-158861878D01*
X138137301Y-158158000D01*
X138120136Y-157983726D01*
X138069303Y-157816149D01*
X137986753Y-157661709D01*
X137875659Y-157526341D01*
X137740291Y-157415247D01*
X137585851Y-157332697D01*
X137418274Y-157281864D01*
X137244000Y-157264699D01*
X135044000Y-157264699D01*
X134869726Y-157281864D01*
X134702149Y-157332697D01*
X134547709Y-157415247D01*
X134412341Y-157526341D01*
X134301247Y-157661709D01*
X134218697Y-157816149D01*
X134167864Y-157983726D01*
X134150699Y-158158000D01*
X121564000Y-158158000D01*
X121564000Y-132605600D01*
X134219279Y-132605600D01*
X134219279Y-134805600D01*
X134236444Y-134979874D01*
X134287277Y-135147451D01*
X134369827Y-135301891D01*
X134480921Y-135437259D01*
X134616289Y-135548353D01*
X134770729Y-135630903D01*
X134938306Y-135681736D01*
X135112580Y-135698901D01*
X137312580Y-135698901D01*
X137486854Y-135681736D01*
X137654431Y-135630903D01*
X137808871Y-135548353D01*
X137944239Y-135437259D01*
X138055333Y-135301891D01*
X138137883Y-135147451D01*
X138188716Y-134979874D01*
X138205881Y-134805600D01*
X138205881Y-134101722D01*
X142143405Y-134101722D01*
X142208005Y-134314694D01*
X142358049Y-134619929D01*
X142564758Y-134890027D01*
X142820189Y-135114608D01*
X143114526Y-135285042D01*
X143436457Y-135394779D01*
X143705580Y-135277200D01*
X143705580Y-133832600D01*
X143959580Y-133832600D01*
X143959580Y-135277200D01*
X144228703Y-135394779D01*
X144550634Y-135285042D01*
X144844971Y-135114608D01*
X145100402Y-134890027D01*
X145307111Y-134619929D01*
X145457155Y-134314694D01*
X145521755Y-134101722D01*
X145403705Y-133832600D01*
X143959580Y-133832600D01*
X143705580Y-133832600D01*
X142261455Y-133832600D01*
X142143405Y-134101722D01*
X138205881Y-134101722D01*
X138205881Y-133309478D01*
X142143405Y-133309478D01*
X142261455Y-133578600D01*
X143705580Y-133578600D01*
X143705580Y-132134000D01*
X143959580Y-132134000D01*
X143959580Y-133578600D01*
X145403705Y-133578600D01*
X145521755Y-133309478D01*
X145457155Y-133096506D01*
X145307111Y-132791271D01*
X145100402Y-132521173D01*
X144844971Y-132296592D01*
X144550634Y-132126158D01*
X144228703Y-132016421D01*
X143959580Y-132134000D01*
X143705580Y-132134000D01*
X143436457Y-132016421D01*
X143114526Y-132126158D01*
X142820189Y-132296592D01*
X142564758Y-132521173D01*
X142358049Y-132791271D01*
X142208005Y-133096506D01*
X142143405Y-133309478D01*
X138205881Y-133309478D01*
X138205881Y-132605600D01*
X138188716Y-132431326D01*
X138137883Y-132263749D01*
X138055333Y-132109309D01*
X137944239Y-131973941D01*
X137808871Y-131862847D01*
X137654431Y-131780297D01*
X137486854Y-131729464D01*
X137312580Y-131712299D01*
X135112580Y-131712299D01*
X134938306Y-131729464D01*
X134770729Y-131780297D01*
X134616289Y-131862847D01*
X134480921Y-131973941D01*
X134369827Y-132109309D01*
X134287277Y-132263749D01*
X134236444Y-132431326D01*
X134219279Y-132605600D01*
X121564000Y-132605600D01*
X121564000Y-107154800D01*
X134201499Y-107154800D01*
X134201499Y-109354800D01*
X134218664Y-109529074D01*
X134269497Y-109696651D01*
X134352047Y-109851091D01*
X134463141Y-109986459D01*
X134598509Y-110097553D01*
X134752949Y-110180103D01*
X134920526Y-110230936D01*
X135094800Y-110248101D01*
X137294800Y-110248101D01*
X137469074Y-110230936D01*
X137636651Y-110180103D01*
X137791091Y-110097553D01*
X137926459Y-109986459D01*
X138037553Y-109851091D01*
X138120103Y-109696651D01*
X138170936Y-109529074D01*
X138188101Y-109354800D01*
X138188101Y-108650922D01*
X142125625Y-108650922D01*
X142190225Y-108863894D01*
X142340269Y-109169129D01*
X142546978Y-109439227D01*
X142802409Y-109663808D01*
X143096746Y-109834242D01*
X143418677Y-109943979D01*
X143687800Y-109826400D01*
X143687800Y-108381800D01*
X143941800Y-108381800D01*
X143941800Y-109826400D01*
X144210923Y-109943979D01*
X144532854Y-109834242D01*
X144827191Y-109663808D01*
X145082622Y-109439227D01*
X145289331Y-109169129D01*
X145439375Y-108863894D01*
X145503975Y-108650922D01*
X145385925Y-108381800D01*
X143941800Y-108381800D01*
X143687800Y-108381800D01*
X142243675Y-108381800D01*
X142125625Y-108650922D01*
X138188101Y-108650922D01*
X138188101Y-107858678D01*
X142125625Y-107858678D01*
X142243675Y-108127800D01*
X143687800Y-108127800D01*
X143687800Y-106683200D01*
X143941800Y-106683200D01*
X143941800Y-108127800D01*
X145385925Y-108127800D01*
X145503975Y-107858678D01*
X145439375Y-107645706D01*
X145289331Y-107340471D01*
X145082622Y-107070373D01*
X144827191Y-106845792D01*
X144532854Y-106675358D01*
X144210923Y-106565621D01*
X143941800Y-106683200D01*
X143687800Y-106683200D01*
X143418677Y-106565621D01*
X143096746Y-106675358D01*
X142802409Y-106845792D01*
X142546978Y-107070373D01*
X142340269Y-107340471D01*
X142190225Y-107645706D01*
X142125625Y-107858678D01*
X138188101Y-107858678D01*
X138188101Y-107154800D01*
X138170936Y-106980526D01*
X138120103Y-106812949D01*
X138037553Y-106658509D01*
X137926459Y-106523141D01*
X137791091Y-106412047D01*
X137636651Y-106329497D01*
X137469074Y-106278664D01*
X137294800Y-106261499D01*
X135094800Y-106261499D01*
X134920526Y-106278664D01*
X134752949Y-106329497D01*
X134598509Y-106412047D01*
X134463141Y-106523141D01*
X134352047Y-106658509D01*
X134269497Y-106812949D01*
X134218664Y-106980526D01*
X134201499Y-107154800D01*
X121564000Y-107154800D01*
X121564000Y-96204991D01*
X162687000Y-96204991D01*
X162687000Y-96530209D01*
X162750447Y-96849179D01*
X162874903Y-97149642D01*
X163055585Y-97420051D01*
X163285549Y-97650015D01*
X163555958Y-97830697D01*
X163856421Y-97955153D01*
X164175391Y-98018600D01*
X164500609Y-98018600D01*
X164819579Y-97955153D01*
X165120042Y-97830697D01*
X165390451Y-97650015D01*
X165620415Y-97420051D01*
X165801097Y-97149642D01*
X165925553Y-96849179D01*
X165989000Y-96530209D01*
X165989000Y-96204991D01*
X165925553Y-95886021D01*
X165801097Y-95585558D01*
X165620415Y-95315149D01*
X165390451Y-95085185D01*
X165120042Y-94904503D01*
X164819579Y-94780047D01*
X164500609Y-94716600D01*
X164175391Y-94716600D01*
X163856421Y-94780047D01*
X163555958Y-94904503D01*
X163285549Y-95085185D01*
X163055585Y-95315149D01*
X162874903Y-95585558D01*
X162750447Y-95886021D01*
X162687000Y-96204991D01*
X121564000Y-96204991D01*
X121564000Y-81096000D01*
X153557899Y-81096000D01*
X153557899Y-83496000D01*
X153575064Y-83670274D01*
X153625897Y-83837851D01*
X153708447Y-83992291D01*
X153819541Y-84127659D01*
X153954909Y-84238753D01*
X154109349Y-84321303D01*
X154276926Y-84372136D01*
X154451200Y-84389301D01*
X156851200Y-84389301D01*
X157025474Y-84372136D01*
X157193051Y-84321303D01*
X157347491Y-84238753D01*
X157482859Y-84127659D01*
X157593953Y-83992291D01*
X157676503Y-83837851D01*
X157727336Y-83670274D01*
X157736820Y-83573980D01*
X158052826Y-83573980D01*
X158172714Y-83858836D01*
X158496410Y-84019699D01*
X158845269Y-84114322D01*
X159205884Y-84139067D01*
X159564398Y-84092985D01*
X159907033Y-83977846D01*
X160129686Y-83858836D01*
X160249574Y-83573980D01*
X159151200Y-82475605D01*
X158052826Y-83573980D01*
X157736820Y-83573980D01*
X157744501Y-83496000D01*
X157744501Y-83340200D01*
X157873220Y-83394374D01*
X158971595Y-82296000D01*
X159330805Y-82296000D01*
X160429180Y-83394374D01*
X160714036Y-83274486D01*
X160874899Y-82950790D01*
X160969522Y-82601931D01*
X160994267Y-82241316D01*
X160948185Y-81882802D01*
X160833046Y-81540167D01*
X160714036Y-81317514D01*
X160429180Y-81197626D01*
X159330805Y-82296000D01*
X158971595Y-82296000D01*
X157873220Y-81197626D01*
X157744501Y-81251800D01*
X157744501Y-81096000D01*
X157736821Y-81018020D01*
X158052826Y-81018020D01*
X159151200Y-82116395D01*
X160249574Y-81018020D01*
X160129686Y-80733164D01*
X159805990Y-80572301D01*
X159457131Y-80477678D01*
X159096516Y-80452933D01*
X158738002Y-80499015D01*
X158395367Y-80614154D01*
X158172714Y-80733164D01*
X158052826Y-81018020D01*
X157736821Y-81018020D01*
X157727336Y-80921726D01*
X157676503Y-80754149D01*
X157593953Y-80599709D01*
X157482859Y-80464341D01*
X157347491Y-80353247D01*
X157193051Y-80270697D01*
X157025474Y-80219864D01*
X156851200Y-80202699D01*
X154451200Y-80202699D01*
X154276926Y-80219864D01*
X154109349Y-80270697D01*
X153954909Y-80353247D01*
X153819541Y-80464341D01*
X153708447Y-80599709D01*
X153625897Y-80754149D01*
X153575064Y-80921726D01*
X153557899Y-81096000D01*
X121564000Y-81096000D01*
X121564000Y-69494000D01*
X183236000Y-69494000D01*
X183236001Y-220066000D01*
M02*
