G04 #@! TF.GenerationSoftware,KiCad,Pcbnew,(5.1.4)-1*
G04 #@! TF.CreationDate,2020-06-15T02:55:39-04:00*
G04 #@! TF.ProjectId,eth_sw_matrix_7,6574685f-7377-45f6-9d61-747269785f37,rev?*
G04 #@! TF.SameCoordinates,Original*
G04 #@! TF.FileFunction,Soldermask,Bot*
G04 #@! TF.FilePolarity,Negative*
%FSLAX46Y46*%
G04 Gerber Fmt 4.6, Leading zero omitted, Abs format (unit mm)*
G04 Created by KiCad (PCBNEW (5.1.4)-1) date 2020-06-15 02:55:39*
%MOMM*%
%LPD*%
G04 APERTURE LIST*
%ADD10C,0.025400*%
G04 APERTURE END LIST*
D10*
G36*
X120688100Y-92735400D02*
G01*
X120688100Y-94513400D01*
X124244100Y-94513400D01*
X124244100Y-92735400D01*
X120688100Y-92735400D01*
G37*
X120688100Y-92735400D02*
X120688100Y-94513400D01*
X124244100Y-94513400D01*
X124244100Y-92735400D01*
X120688100Y-92735400D01*
G36*
X120688100Y-98323400D02*
G01*
X120688100Y-100101400D01*
X124244100Y-100101400D01*
X124244100Y-98323400D01*
X120688100Y-98323400D01*
G37*
X120688100Y-98323400D02*
X120688100Y-100101400D01*
X124244100Y-100101400D01*
X124244100Y-98323400D01*
X120688100Y-98323400D01*
G36*
X120662700Y-123825000D02*
G01*
X120662700Y-125603000D01*
X124218700Y-125603000D01*
X124218700Y-123825000D01*
X120662700Y-123825000D01*
G37*
X120662700Y-123825000D02*
X120662700Y-125603000D01*
X124218700Y-125603000D01*
X124218700Y-123825000D01*
X120662700Y-123825000D01*
G36*
X120662700Y-118237000D02*
G01*
X120662700Y-120015000D01*
X124218700Y-120015000D01*
X124218700Y-118237000D01*
X120662700Y-118237000D01*
G37*
X120662700Y-118237000D02*
X120662700Y-120015000D01*
X124218700Y-120015000D01*
X124218700Y-118237000D01*
X120662700Y-118237000D01*
G36*
X120662700Y-143789400D02*
G01*
X120662700Y-145567400D01*
X124218700Y-145567400D01*
X124218700Y-143789400D01*
X120662700Y-143789400D01*
G37*
X120662700Y-143789400D02*
X120662700Y-145567400D01*
X124218700Y-145567400D01*
X124218700Y-143789400D01*
X120662700Y-143789400D01*
G36*
X120662700Y-149377400D02*
G01*
X120662700Y-151155400D01*
X124218700Y-151155400D01*
X124218700Y-149377400D01*
X120662700Y-149377400D01*
G37*
X120662700Y-149377400D02*
X120662700Y-151155400D01*
X124218700Y-151155400D01*
X124218700Y-149377400D01*
X120662700Y-149377400D01*
G36*
X184137300Y-139725400D02*
G01*
X184137300Y-137947400D01*
X180581300Y-137947400D01*
X180581300Y-139725400D01*
X184137300Y-139725400D01*
G37*
X184137300Y-139725400D02*
X184137300Y-137947400D01*
X180581300Y-137947400D01*
X180581300Y-139725400D01*
X184137300Y-139725400D01*
G36*
X184137300Y-134137400D02*
G01*
X184137300Y-132359400D01*
X180581300Y-132359400D01*
X180581300Y-134137400D01*
X184137300Y-134137400D01*
G37*
X184137300Y-134137400D02*
X184137300Y-132359400D01*
X180581300Y-132359400D01*
X180581300Y-134137400D01*
X184137300Y-134137400D01*
G36*
X184086500Y-113512600D02*
G01*
X184086500Y-111734600D01*
X180530500Y-111734600D01*
X180530500Y-113512600D01*
X184086500Y-113512600D01*
G37*
X184086500Y-113512600D02*
X184086500Y-111734600D01*
X180530500Y-111734600D01*
X180530500Y-113512600D01*
X184086500Y-113512600D01*
G36*
X184086500Y-119100600D02*
G01*
X184086500Y-117322600D01*
X180530500Y-117322600D01*
X180530500Y-119100600D01*
X184086500Y-119100600D01*
G37*
X184086500Y-119100600D02*
X184086500Y-117322600D01*
X180530500Y-117322600D01*
X180530500Y-119100600D01*
X184086500Y-119100600D01*
G36*
X132902103Y-205811075D02*
G01*
X133129771Y-205905378D01*
X133334666Y-206042285D01*
X133508915Y-206216534D01*
X133645822Y-206421429D01*
X133740125Y-206649097D01*
X133788200Y-206890787D01*
X133788200Y-207137213D01*
X133740125Y-207378903D01*
X133645822Y-207606571D01*
X133508915Y-207811466D01*
X133334666Y-207985715D01*
X133129771Y-208122622D01*
X133129770Y-208122623D01*
X133129769Y-208122623D01*
X132902103Y-208216925D01*
X132660414Y-208265000D01*
X132413986Y-208265000D01*
X132172297Y-208216925D01*
X131944631Y-208122623D01*
X131944630Y-208122623D01*
X131944629Y-208122622D01*
X131739734Y-207985715D01*
X131565485Y-207811466D01*
X131428578Y-207606571D01*
X131334275Y-207378903D01*
X131286200Y-207137213D01*
X131286200Y-206890787D01*
X131334275Y-206649097D01*
X131428578Y-206421429D01*
X131565485Y-206216534D01*
X131739734Y-206042285D01*
X131944629Y-205905378D01*
X132172297Y-205811075D01*
X132413986Y-205763000D01*
X132660414Y-205763000D01*
X132902103Y-205811075D01*
X132902103Y-205811075D01*
G37*
G36*
X132902103Y-202311075D02*
G01*
X133129771Y-202405378D01*
X133334666Y-202542285D01*
X133508915Y-202716534D01*
X133645822Y-202921429D01*
X133740125Y-203149097D01*
X133788200Y-203390787D01*
X133788200Y-203637213D01*
X133740125Y-203878903D01*
X133645822Y-204106571D01*
X133508915Y-204311466D01*
X133334666Y-204485715D01*
X133129771Y-204622622D01*
X133129770Y-204622623D01*
X133129769Y-204622623D01*
X132902103Y-204716925D01*
X132660414Y-204765000D01*
X132413986Y-204765000D01*
X132172297Y-204716925D01*
X131944631Y-204622623D01*
X131944630Y-204622623D01*
X131944629Y-204622622D01*
X131739734Y-204485715D01*
X131565485Y-204311466D01*
X131428578Y-204106571D01*
X131334275Y-203878903D01*
X131286200Y-203637213D01*
X131286200Y-203390787D01*
X131334275Y-203149097D01*
X131428578Y-202921429D01*
X131565485Y-202716534D01*
X131739734Y-202542285D01*
X131944629Y-202405378D01*
X132172297Y-202311075D01*
X132413986Y-202263000D01*
X132660414Y-202263000D01*
X132902103Y-202311075D01*
X132902103Y-202311075D01*
G37*
G36*
X132902103Y-198811075D02*
G01*
X133129771Y-198905378D01*
X133334666Y-199042285D01*
X133508915Y-199216534D01*
X133645822Y-199421429D01*
X133740125Y-199649097D01*
X133788200Y-199890787D01*
X133788200Y-200137213D01*
X133740125Y-200378903D01*
X133645822Y-200606571D01*
X133508915Y-200811466D01*
X133334666Y-200985715D01*
X133129771Y-201122622D01*
X133129770Y-201122623D01*
X133129769Y-201122623D01*
X132902103Y-201216925D01*
X132660414Y-201265000D01*
X132413986Y-201265000D01*
X132172297Y-201216925D01*
X131944631Y-201122623D01*
X131944630Y-201122623D01*
X131944629Y-201122622D01*
X131739734Y-200985715D01*
X131565485Y-200811466D01*
X131428578Y-200606571D01*
X131334275Y-200378903D01*
X131286200Y-200137213D01*
X131286200Y-199890787D01*
X131334275Y-199649097D01*
X131428578Y-199421429D01*
X131565485Y-199216534D01*
X131739734Y-199042285D01*
X131944629Y-198905378D01*
X132172297Y-198811075D01*
X132413986Y-198763000D01*
X132660414Y-198763000D01*
X132902103Y-198811075D01*
X132902103Y-198811075D01*
G37*
G36*
X132902103Y-195311075D02*
G01*
X133129771Y-195405378D01*
X133334666Y-195542285D01*
X133508915Y-195716534D01*
X133645822Y-195921429D01*
X133740125Y-196149097D01*
X133788200Y-196390787D01*
X133788200Y-196637213D01*
X133740125Y-196878903D01*
X133645822Y-197106571D01*
X133508915Y-197311466D01*
X133334666Y-197485715D01*
X133129771Y-197622622D01*
X133129770Y-197622623D01*
X133129769Y-197622623D01*
X132902103Y-197716925D01*
X132660414Y-197765000D01*
X132413986Y-197765000D01*
X132172297Y-197716925D01*
X131944631Y-197622623D01*
X131944630Y-197622623D01*
X131944629Y-197622622D01*
X131739734Y-197485715D01*
X131565485Y-197311466D01*
X131428578Y-197106571D01*
X131334275Y-196878903D01*
X131286200Y-196637213D01*
X131286200Y-196390787D01*
X131334275Y-196149097D01*
X131428578Y-195921429D01*
X131565485Y-195716534D01*
X131739734Y-195542285D01*
X131944629Y-195405378D01*
X132172297Y-195311075D01*
X132413986Y-195263000D01*
X132660414Y-195263000D01*
X132902103Y-195311075D01*
X132902103Y-195311075D01*
G37*
G36*
X132902103Y-191811075D02*
G01*
X133129771Y-191905378D01*
X133334666Y-192042285D01*
X133508915Y-192216534D01*
X133645822Y-192421429D01*
X133740125Y-192649097D01*
X133788200Y-192890787D01*
X133788200Y-193137213D01*
X133740125Y-193378903D01*
X133645822Y-193606571D01*
X133508915Y-193811466D01*
X133334666Y-193985715D01*
X133129771Y-194122622D01*
X133129770Y-194122623D01*
X133129769Y-194122623D01*
X132902103Y-194216925D01*
X132660414Y-194265000D01*
X132413986Y-194265000D01*
X132172297Y-194216925D01*
X131944631Y-194122623D01*
X131944630Y-194122623D01*
X131944629Y-194122622D01*
X131739734Y-193985715D01*
X131565485Y-193811466D01*
X131428578Y-193606571D01*
X131334275Y-193378903D01*
X131286200Y-193137213D01*
X131286200Y-192890787D01*
X131334275Y-192649097D01*
X131428578Y-192421429D01*
X131565485Y-192216534D01*
X131739734Y-192042285D01*
X131944629Y-191905378D01*
X132172297Y-191811075D01*
X132413986Y-191763000D01*
X132660414Y-191763000D01*
X132902103Y-191811075D01*
X132902103Y-191811075D01*
G37*
G36*
X132902103Y-188311075D02*
G01*
X133129771Y-188405378D01*
X133334666Y-188542285D01*
X133508915Y-188716534D01*
X133645822Y-188921429D01*
X133740125Y-189149097D01*
X133788200Y-189390787D01*
X133788200Y-189637213D01*
X133740125Y-189878903D01*
X133645822Y-190106571D01*
X133508915Y-190311466D01*
X133334666Y-190485715D01*
X133129771Y-190622622D01*
X133129770Y-190622623D01*
X133129769Y-190622623D01*
X132902103Y-190716925D01*
X132660414Y-190765000D01*
X132413986Y-190765000D01*
X132172297Y-190716925D01*
X131944631Y-190622623D01*
X131944630Y-190622623D01*
X131944629Y-190622622D01*
X131739734Y-190485715D01*
X131565485Y-190311466D01*
X131428578Y-190106571D01*
X131334275Y-189878903D01*
X131286200Y-189637213D01*
X131286200Y-189390787D01*
X131334275Y-189149097D01*
X131428578Y-188921429D01*
X131565485Y-188716534D01*
X131739734Y-188542285D01*
X131944629Y-188405378D01*
X132172297Y-188311075D01*
X132413986Y-188263000D01*
X132660414Y-188263000D01*
X132902103Y-188311075D01*
X132902103Y-188311075D01*
G37*
G36*
X132902103Y-184811075D02*
G01*
X133129771Y-184905378D01*
X133334666Y-185042285D01*
X133508915Y-185216534D01*
X133645822Y-185421429D01*
X133740125Y-185649097D01*
X133788200Y-185890787D01*
X133788200Y-186137213D01*
X133740125Y-186378903D01*
X133645822Y-186606571D01*
X133508915Y-186811466D01*
X133334666Y-186985715D01*
X133129771Y-187122622D01*
X133129770Y-187122623D01*
X133129769Y-187122623D01*
X132902103Y-187216925D01*
X132660414Y-187265000D01*
X132413986Y-187265000D01*
X132172297Y-187216925D01*
X131944631Y-187122623D01*
X131944630Y-187122623D01*
X131944629Y-187122622D01*
X131739734Y-186985715D01*
X131565485Y-186811466D01*
X131428578Y-186606571D01*
X131334275Y-186378903D01*
X131286200Y-186137213D01*
X131286200Y-185890787D01*
X131334275Y-185649097D01*
X131428578Y-185421429D01*
X131565485Y-185216534D01*
X131739734Y-185042285D01*
X131944629Y-184905378D01*
X132172297Y-184811075D01*
X132413986Y-184763000D01*
X132660414Y-184763000D01*
X132902103Y-184811075D01*
X132902103Y-184811075D01*
G37*
G36*
X132902103Y-181311075D02*
G01*
X133129771Y-181405378D01*
X133334666Y-181542285D01*
X133508915Y-181716534D01*
X133645822Y-181921429D01*
X133740125Y-182149097D01*
X133788200Y-182390787D01*
X133788200Y-182637213D01*
X133740125Y-182878903D01*
X133645822Y-183106571D01*
X133508915Y-183311466D01*
X133334666Y-183485715D01*
X133129771Y-183622622D01*
X133129770Y-183622623D01*
X133129769Y-183622623D01*
X132902103Y-183716925D01*
X132660414Y-183765000D01*
X132413986Y-183765000D01*
X132172297Y-183716925D01*
X131944631Y-183622623D01*
X131944630Y-183622623D01*
X131944629Y-183622622D01*
X131739734Y-183485715D01*
X131565485Y-183311466D01*
X131428578Y-183106571D01*
X131334275Y-182878903D01*
X131286200Y-182637213D01*
X131286200Y-182390787D01*
X131334275Y-182149097D01*
X131428578Y-181921429D01*
X131565485Y-181716534D01*
X131739734Y-181542285D01*
X131944629Y-181405378D01*
X132172297Y-181311075D01*
X132413986Y-181263000D01*
X132660414Y-181263000D01*
X132902103Y-181311075D01*
X132902103Y-181311075D01*
G37*
G36*
X132902103Y-177811075D02*
G01*
X133129771Y-177905378D01*
X133334666Y-178042285D01*
X133508915Y-178216534D01*
X133645822Y-178421429D01*
X133740125Y-178649097D01*
X133788200Y-178890787D01*
X133788200Y-179137213D01*
X133740125Y-179378903D01*
X133645822Y-179606571D01*
X133508915Y-179811466D01*
X133334666Y-179985715D01*
X133129771Y-180122622D01*
X133129770Y-180122623D01*
X133129769Y-180122623D01*
X132902103Y-180216925D01*
X132660414Y-180265000D01*
X132413986Y-180265000D01*
X132172297Y-180216925D01*
X131944631Y-180122623D01*
X131944630Y-180122623D01*
X131944629Y-180122622D01*
X131739734Y-179985715D01*
X131565485Y-179811466D01*
X131428578Y-179606571D01*
X131334275Y-179378903D01*
X131286200Y-179137213D01*
X131286200Y-178890787D01*
X131334275Y-178649097D01*
X131428578Y-178421429D01*
X131565485Y-178216534D01*
X131739734Y-178042285D01*
X131944629Y-177905378D01*
X132172297Y-177811075D01*
X132413986Y-177763000D01*
X132660414Y-177763000D01*
X132902103Y-177811075D01*
X132902103Y-177811075D01*
G37*
G36*
X133788200Y-176765000D02*
G01*
X131286200Y-176765000D01*
X131286200Y-174263000D01*
X133788200Y-174263000D01*
X133788200Y-176765000D01*
X133788200Y-176765000D01*
G37*
G36*
X160494071Y-162131303D02*
G01*
X160550435Y-162136854D01*
X160767400Y-162202670D01*
X160767402Y-162202671D01*
X160967355Y-162309547D01*
X161142618Y-162453382D01*
X161286453Y-162628645D01*
X161393329Y-162828598D01*
X161459146Y-163045566D01*
X161481369Y-163271200D01*
X161459146Y-163496834D01*
X161393329Y-163713802D01*
X161286453Y-163913755D01*
X161142618Y-164089018D01*
X160967355Y-164232853D01*
X160767402Y-164339729D01*
X160767400Y-164339730D01*
X160550435Y-164405546D01*
X160494071Y-164411097D01*
X160381345Y-164422200D01*
X160268255Y-164422200D01*
X160155529Y-164411097D01*
X160099165Y-164405546D01*
X159882200Y-164339730D01*
X159882198Y-164339729D01*
X159682245Y-164232853D01*
X159506982Y-164089018D01*
X159363147Y-163913755D01*
X159256271Y-163713802D01*
X159190454Y-163496834D01*
X159168231Y-163271200D01*
X159190454Y-163045566D01*
X159256271Y-162828598D01*
X159363147Y-162628645D01*
X159506982Y-162453382D01*
X159682245Y-162309547D01*
X159882198Y-162202671D01*
X159882200Y-162202670D01*
X160099165Y-162136854D01*
X160155529Y-162131303D01*
X160268255Y-162120200D01*
X160381345Y-162120200D01*
X160494071Y-162131303D01*
X160494071Y-162131303D01*
G37*
G36*
X153855800Y-164422200D02*
G01*
X151553800Y-164422200D01*
X151553800Y-162120200D01*
X153855800Y-162120200D01*
X153855800Y-164422200D01*
X153855800Y-164422200D01*
G37*
G36*
X137295000Y-160409000D02*
G01*
X134993000Y-160409000D01*
X134993000Y-158107000D01*
X137295000Y-158107000D01*
X137295000Y-160409000D01*
X137295000Y-160409000D01*
G37*
G36*
X143933271Y-158118103D02*
G01*
X143989635Y-158123654D01*
X144206600Y-158189470D01*
X144206602Y-158189471D01*
X144406555Y-158296347D01*
X144581818Y-158440182D01*
X144725653Y-158615445D01*
X144832529Y-158815398D01*
X144898346Y-159032366D01*
X144920569Y-159258000D01*
X144898346Y-159483634D01*
X144832529Y-159700602D01*
X144725653Y-159900555D01*
X144581818Y-160075818D01*
X144406555Y-160219653D01*
X144206602Y-160326529D01*
X144206600Y-160326530D01*
X143989635Y-160392346D01*
X143933271Y-160397897D01*
X143820545Y-160409000D01*
X143707455Y-160409000D01*
X143594729Y-160397897D01*
X143538365Y-160392346D01*
X143321400Y-160326530D01*
X143321398Y-160326529D01*
X143121445Y-160219653D01*
X142946182Y-160075818D01*
X142802347Y-159900555D01*
X142695471Y-159700602D01*
X142629654Y-159483634D01*
X142607431Y-159258000D01*
X142629654Y-159032366D01*
X142695471Y-158815398D01*
X142802347Y-158615445D01*
X142946182Y-158440182D01*
X143121445Y-158296347D01*
X143321398Y-158189471D01*
X143321400Y-158189470D01*
X143538365Y-158123654D01*
X143594729Y-158118103D01*
X143707455Y-158107000D01*
X143820545Y-158107000D01*
X143933271Y-158118103D01*
X143933271Y-158118103D01*
G37*
G36*
X160443271Y-136324903D02*
G01*
X160499635Y-136330454D01*
X160716600Y-136396270D01*
X160716602Y-136396271D01*
X160916555Y-136503147D01*
X161091818Y-136646982D01*
X161235653Y-136822245D01*
X161342529Y-137022198D01*
X161408346Y-137239166D01*
X161430569Y-137464800D01*
X161408346Y-137690434D01*
X161342529Y-137907402D01*
X161235653Y-138107355D01*
X161091818Y-138282618D01*
X160916555Y-138426453D01*
X160716602Y-138533329D01*
X160716600Y-138533330D01*
X160499635Y-138599146D01*
X160443271Y-138604697D01*
X160330545Y-138615800D01*
X160217455Y-138615800D01*
X160104729Y-138604697D01*
X160048365Y-138599146D01*
X159831400Y-138533330D01*
X159831398Y-138533329D01*
X159631445Y-138426453D01*
X159456182Y-138282618D01*
X159312347Y-138107355D01*
X159205471Y-137907402D01*
X159139654Y-137690434D01*
X159117431Y-137464800D01*
X159139654Y-137239166D01*
X159205471Y-137022198D01*
X159312347Y-136822245D01*
X159456182Y-136646982D01*
X159631445Y-136503147D01*
X159831398Y-136396271D01*
X159831400Y-136396270D01*
X160048365Y-136330454D01*
X160104729Y-136324903D01*
X160217455Y-136313800D01*
X160330545Y-136313800D01*
X160443271Y-136324903D01*
X160443271Y-136324903D01*
G37*
G36*
X153805000Y-138615800D02*
G01*
X151503000Y-138615800D01*
X151503000Y-136313800D01*
X153805000Y-136313800D01*
X153805000Y-138615800D01*
X153805000Y-138615800D01*
G37*
G36*
X144001851Y-132565703D02*
G01*
X144058215Y-132571254D01*
X144275180Y-132637070D01*
X144275182Y-132637071D01*
X144475135Y-132743947D01*
X144650398Y-132887782D01*
X144794233Y-133063045D01*
X144901109Y-133262998D01*
X144966926Y-133479966D01*
X144989149Y-133705600D01*
X144966926Y-133931234D01*
X144901109Y-134148202D01*
X144794233Y-134348155D01*
X144650398Y-134523418D01*
X144475135Y-134667253D01*
X144275182Y-134774129D01*
X144275180Y-134774130D01*
X144058215Y-134839946D01*
X144001851Y-134845497D01*
X143889125Y-134856600D01*
X143776035Y-134856600D01*
X143663309Y-134845497D01*
X143606945Y-134839946D01*
X143389980Y-134774130D01*
X143389978Y-134774129D01*
X143190025Y-134667253D01*
X143014762Y-134523418D01*
X142870927Y-134348155D01*
X142764051Y-134148202D01*
X142698234Y-133931234D01*
X142676011Y-133705600D01*
X142698234Y-133479966D01*
X142764051Y-133262998D01*
X142870927Y-133063045D01*
X143014762Y-132887782D01*
X143190025Y-132743947D01*
X143389978Y-132637071D01*
X143389980Y-132637070D01*
X143606945Y-132571254D01*
X143663309Y-132565703D01*
X143776035Y-132554600D01*
X143889125Y-132554600D01*
X144001851Y-132565703D01*
X144001851Y-132565703D01*
G37*
G36*
X137363580Y-134856600D02*
G01*
X135061580Y-134856600D01*
X135061580Y-132554600D01*
X137363580Y-132554600D01*
X137363580Y-134856600D01*
X137363580Y-134856600D01*
G37*
G36*
X160392471Y-110569303D02*
G01*
X160448835Y-110574854D01*
X160665800Y-110640670D01*
X160665802Y-110640671D01*
X160865755Y-110747547D01*
X161041018Y-110891382D01*
X161184853Y-111066645D01*
X161291729Y-111266598D01*
X161357546Y-111483566D01*
X161379769Y-111709200D01*
X161357546Y-111934834D01*
X161291729Y-112151802D01*
X161184853Y-112351755D01*
X161041018Y-112527018D01*
X160865755Y-112670853D01*
X160665802Y-112777729D01*
X160665800Y-112777730D01*
X160448835Y-112843546D01*
X160392471Y-112849097D01*
X160279745Y-112860200D01*
X160166655Y-112860200D01*
X160053929Y-112849097D01*
X159997565Y-112843546D01*
X159780600Y-112777730D01*
X159780598Y-112777729D01*
X159580645Y-112670853D01*
X159405382Y-112527018D01*
X159261547Y-112351755D01*
X159154671Y-112151802D01*
X159088854Y-111934834D01*
X159066631Y-111709200D01*
X159088854Y-111483566D01*
X159154671Y-111266598D01*
X159261547Y-111066645D01*
X159405382Y-110891382D01*
X159580645Y-110747547D01*
X159780598Y-110640671D01*
X159780600Y-110640670D01*
X159997565Y-110574854D01*
X160053929Y-110569303D01*
X160166655Y-110558200D01*
X160279745Y-110558200D01*
X160392471Y-110569303D01*
X160392471Y-110569303D01*
G37*
G36*
X153754200Y-112860200D02*
G01*
X151452200Y-112860200D01*
X151452200Y-110558200D01*
X153754200Y-110558200D01*
X153754200Y-112860200D01*
X153754200Y-112860200D01*
G37*
G36*
X143984071Y-107114903D02*
G01*
X144040435Y-107120454D01*
X144257400Y-107186270D01*
X144257402Y-107186271D01*
X144457355Y-107293147D01*
X144632618Y-107436982D01*
X144776453Y-107612245D01*
X144883329Y-107812198D01*
X144949146Y-108029166D01*
X144971369Y-108254800D01*
X144949146Y-108480434D01*
X144883329Y-108697402D01*
X144776453Y-108897355D01*
X144632618Y-109072618D01*
X144457355Y-109216453D01*
X144257402Y-109323329D01*
X144257400Y-109323330D01*
X144040435Y-109389146D01*
X143984071Y-109394697D01*
X143871345Y-109405800D01*
X143758255Y-109405800D01*
X143645529Y-109394697D01*
X143589165Y-109389146D01*
X143372200Y-109323330D01*
X143372198Y-109323329D01*
X143172245Y-109216453D01*
X142996982Y-109072618D01*
X142853147Y-108897355D01*
X142746271Y-108697402D01*
X142680454Y-108480434D01*
X142658231Y-108254800D01*
X142680454Y-108029166D01*
X142746271Y-107812198D01*
X142853147Y-107612245D01*
X142996982Y-107436982D01*
X143172245Y-107293147D01*
X143372198Y-107186271D01*
X143372200Y-107186270D01*
X143589165Y-107120454D01*
X143645529Y-107114903D01*
X143758255Y-107103800D01*
X143871345Y-107103800D01*
X143984071Y-107114903D01*
X143984071Y-107114903D01*
G37*
G36*
X137345800Y-109405800D02*
G01*
X135043800Y-109405800D01*
X135043800Y-107103800D01*
X137345800Y-107103800D01*
X137345800Y-109405800D01*
X137345800Y-109405800D01*
G37*
G36*
X159516103Y-81093075D02*
G01*
X159743771Y-81187378D01*
X159948666Y-81324285D01*
X160122915Y-81498534D01*
X160259822Y-81703429D01*
X160354125Y-81931097D01*
X160402200Y-82172787D01*
X160402200Y-82419213D01*
X160354125Y-82660903D01*
X160259822Y-82888571D01*
X160122915Y-83093466D01*
X159948666Y-83267715D01*
X159743771Y-83404622D01*
X159743770Y-83404623D01*
X159743769Y-83404623D01*
X159516103Y-83498925D01*
X159274414Y-83547000D01*
X159027986Y-83547000D01*
X158786297Y-83498925D01*
X158558631Y-83404623D01*
X158558630Y-83404623D01*
X158558629Y-83404622D01*
X158353734Y-83267715D01*
X158179485Y-83093466D01*
X158042578Y-82888571D01*
X157948275Y-82660903D01*
X157900200Y-82419213D01*
X157900200Y-82172787D01*
X157948275Y-81931097D01*
X158042578Y-81703429D01*
X158179485Y-81498534D01*
X158353734Y-81324285D01*
X158558629Y-81187378D01*
X158786297Y-81093075D01*
X159027986Y-81045000D01*
X159274414Y-81045000D01*
X159516103Y-81093075D01*
X159516103Y-81093075D01*
G37*
G36*
X156902200Y-83547000D02*
G01*
X154400200Y-83547000D01*
X154400200Y-81045000D01*
X156902200Y-81045000D01*
X156902200Y-83547000D01*
X156902200Y-83547000D01*
G37*
M02*
